<?xml version="1.0" encoding="UTF-8" standalone="no"?>
<!-- Created with Inkscape (http://www.inkscape.org/) -->

<svg
   xmlns:osb="http://www.openswatchbook.org/uri/2009/osb"
   xmlns:dc="http://purl.org/dc/elements/1.1/"
   xmlns:cc="http://creativecommons.org/ns#"
   xmlns:rdf="http://www.w3.org/1999/02/22-rdf-syntax-ns#"
   xmlns:svg="http://www.w3.org/2000/svg"
   xmlns="http://www.w3.org/2000/svg"
   xmlns:xlink="http://www.w3.org/1999/xlink"
   xmlns:sodipodi="http://sodipodi.sourceforge.net/DTD/sodipodi-0.dtd"
   xmlns:inkscape="http://www.inkscape.org/namespaces/inkscape"
   width="210"
   height="297"
   viewBox="0 0 210 297"
   version="1.1"
   id="ibac"
   inkscape:version="0.92.1 r15371"
   sodipodi:docname="casino.svg"
   style="enable-background:new">
  <defs
     id="defs2">
    <linearGradient
       id="linearGradient6216"
       osb:paint="solid">
      <stop
         style="stop-color:#00008b;stop-opacity:1;"
         offset="0"
         id="stop6214" />
    </linearGradient>
  </defs>
  <sodipodi:namedview
     id="base"
     pagecolor="#ffffff"
     bordercolor="#666666"
     borderopacity="1.0"
     inkscape:pageopacity="0.0"
     inkscape:pageshadow="2"
     inkscape:zoom="0.45254834"
     inkscape:cx="99.630624"
     inkscape:cy="497.17434"
     inkscape:document-units="mm"
     inkscape:current-layer="layer6"
     showgrid="false"
     inkscape:window-width="1253"
     inkscape:window-height="691"
     inkscape:window-x="108"
     inkscape:window-y="0"
     inkscape:window-maximized="0"
     showguides="true"
     inkscape:guide-bbox="true"
     inkscape:snap-page="true">
    <sodipodi:guide
       position="-0.75595236,197.30358"
       orientation="1,0"
       id="guide5014"
       inkscape:locked="false" />
    <sodipodi:guide
       position="210.91071,167.06548"
       orientation="1,0"
       id="guide5016"
       inkscape:locked="false" />
    <sodipodi:guide
       position="105.07738,219.2262"
       orientation="1,0"
       id="guide5018"
       inkscape:locked="false" />
    <sodipodi:guide
       position="10.156241,153.41271"
       orientation="1,0"
       id="guide5070"
       inkscape:locked="false" />
    <sodipodi:guide
       position="-25.891369,42.71131"
       orientation="0,1"
       id="guide4578"
       inkscape:locked="false" />
    <sodipodi:guide
       position="-9.4260877,17.472513"
       orientation="0,1"
       id="guide4580"
       inkscape:locked="false" />
    <sodipodi:guide
       position="153.70869,260.91927"
       orientation="1,0"
       id="guide6157"
       inkscape:locked="false" />
  </sodipodi:namedview>
  <metadata
     id="metadata5">
    <rdf:RDF>
      <cc:Work
         rdf:about="">
        <dc:format>image/svg+xml</dc:format>
        <dc:type
           rdf:resource="http://purl.org/dc/dcmitype/StillImage" />
        <dc:title />
      </cc:Work>
    </rdf:RDF>
  </metadata>
  <g
     inkscape:label="sky-background"
     inkscape:groupmode="layer"
     id="layer1"
     style="display:inline;opacity:1"
     sodipodi:insensitive="true">
    <rect
       style="opacity:1;fill:#bee1e8;fill-opacity:1;stroke:none;stroke-width:2.95062995;stroke-miterlimit:4;stroke-dasharray:none;stroke-dashoffset:0;stroke-opacity:1"
       id="rect4485"
       width="210"
       height="297.11694"
       x="0"
       y="-0.11309535" />
  </g>
  <g
     inkscape:groupmode="layer"
     id="layer16"
     inkscape:label="gray-pattern"
     style="display:inline" />
  <g
     inkscape:groupmode="layer"
     id="layer6"
     inkscape:label="link"
     style="display:inline">
    <g
       inkscape:groupmode="layer"
       id="layer5"
       inkscape:label="link-background"
       style="display:inline">
      <a
         id="wind-link-rect"
         xlink:href="https://larrybe.github.io/ibac"
         xlink:title=""
         inkscape:label="#a4593">
        <rect
           ry="12.4485"
           y="254.63049"
           x="53.98901"
           height="24.896999"
           width="101.653"
           id="rect4582"
           style="opacity:1;fill:#ffffff;fill-opacity:1;stroke:none;stroke-width:4.29295969;stroke-miterlimit:4;stroke-dasharray:none;stroke-dashoffset:0;stroke-opacity:1" />
      </a>
    </g>
    <a
       id="wind-link"
       xlink:href="https://larrybe.github.io/ibac"
       inkscape:label="#a4596">
      <text
         id="text4587"
         y="270.23004"
         x="105.59875"
         style="font-style:normal;font-variant:normal;font-weight:normal;font-stretch:normal;font-size:10.58333302px;line-height:1.25;font-family:sans-serif;-inkscape-font-specification:'sans-serif, Normal';font-variant-ligatures:normal;font-variant-caps:normal;font-variant-numeric:normal;font-feature-settings:normal;text-align:center;letter-spacing:0px;word-spacing:0px;writing-mode:lr-tb;text-anchor:middle;fill:#000000;fill-opacity:1;stroke:none;stroke-width:0.26458332"
         xml:space="preserve"><tspan
           style="font-style:normal;font-variant:normal;font-weight:normal;font-stretch:normal;font-size:10.58333302px;font-family:sans-serif;-inkscape-font-specification:'sans-serif, Normal';font-variant-ligatures:normal;font-variant-caps:normal;font-variant-numeric:normal;font-feature-settings:normal;text-align:center;writing-mode:lr-tb;text-anchor:middle;fill:#00008b;fill-opacity:1;stroke-width:0.26458332"
           y="270.23004"
           x="105.59875"
           id="tspan4585"
           sodipodi:role="line">see the project<tspan
   id="tspan4589"
   style="font-style:normal;font-variant:normal;font-weight:normal;font-stretch:normal;font-size:10.58333302px;font-family:sans-serif;-inkscape-font-specification:'sans-serif, Normal';font-variant-ligatures:normal;font-variant-caps:normal;font-variant-numeric:normal;font-feature-settings:normal;text-align:center;writing-mode:lr-tb;text-anchor:middle;fill:#00008b;fill-opacity:1">&gt;</tspan></tspan></text>
    </a>
  </g>
  <g
     inkscape:groupmode="layer"
     id="layer3"
     inkscape:label="text">
    <text
       xml:space="preserve"
       style="font-style:normal;font-weight:normal;font-size:6.3499999px;line-height:1.25;font-family:sans-serif;letter-spacing:0px;word-spacing:0px;fill:#00008b;fill-opacity:1;stroke:none;stroke-width:0.26458332"
       x="10.156486"
       y="195.30627"
       id="text5847"><tspan
         sodipodi:role="line"
         x="10.156486"
         y="195.30627"
         id="tspan5823"
         style="stroke-width:0.26458332"><tspan
           x="10.156486"
           y="195.30627"
           id="tspan5819"
           style="stroke-width:0.26458332">React</tspan><tspan
           dx="0"
           x="27.842228"
           y="195.30627"
           id="tspan5821"
           style="stroke-width:0.26458332" /></tspan><tspan
         sodipodi:role="line"
         x="10.156486"
         y="203.24377"
         id="tspan5829"
         style="stroke-width:0.26458332"><tspan
           x="10.156486"
           y="203.24377"
           id="tspan5825"
           style="stroke-width:0.26458332">Snap.svg</tspan><tspan
           dx="0"
           x="39.562443"
           y="203.24377"
           id="tspan5827"
           style="stroke-width:0.26458332" /></tspan><tspan
         sodipodi:role="line"
         x="10.156486"
         y="211.18127"
         id="tspan5835"
         style="stroke-width:0.26458332"><tspan
           x="10.156486"
           y="211.18127"
           id="tspan5831"
           style="stroke-width:0.26458332">JavaScript</tspan><tspan
           dx="0"
           x="42.824261"
           y="211.18127"
           id="tspan5833"
           style="stroke-width:0.26458332" /></tspan><tspan
         sodipodi:role="line"
         x="10.156486"
         y="219.11877"
         id="tspan5841"
         style="stroke-width:0.26458332"><tspan
           x="10.156486"
           y="219.11877"
           id="tspan5837"
           style="stroke-width:0.26458332">CSS</tspan><tspan
           dx="0"
           x="23.216154"
           y="219.11877"
           id="tspan5839"
           style="stroke-width:0.26458332" /></tspan><tspan
         sodipodi:role="line"
         x="10.156486"
         y="219.11877"
         id="tspan5845"
         style="stroke-width:0.26458332"><tspan
           x="10.156486"
           y="227.05627"
           id="tspan5843"
           style="stroke-width:0.26458332" /></tspan></text>
    <text
       xml:space="preserve"
       style="font-style:normal;font-weight:normal;font-size:16.93333244px;line-height:1.25;font-family:sans-serif;letter-spacing:0px;word-spacing:0px;fill:#00008b;fill-opacity:1;stroke:none;stroke-width:0.26458332"
       x="73.315681"
       y="142.79752"
       id="text5887"><tspan
         sodipodi:role="line"
         id="tspan5885"
         x="73.315681"
         y="142.79752"
         style="fill:#00008b;fill-opacity:1;stroke-width:0.26458332">CASINO</tspan></text>
    <text
       xml:space="preserve"
       style="font-style:normal;font-weight:normal;font-size:5.64444447px;line-height:1.25;font-family:sans-serif;letter-spacing:0px;word-spacing:0px;fill:#00008b;fill-opacity:0.52941176;stroke:none;stroke-width:0.26458332"
       x="96.053253"
       y="129.03386"
       id="text5891"><tspan
         sodipodi:role="line"
         id="tspan5889"
         x="96.053253"
         y="129.03386"
         style="fill:#00008b;fill-opacity:0.52941176;stroke-width:0.26458332">I built a</tspan></text>
  </g>
  <g
     inkscape:groupmode="layer"
     id="layer7"
     inkscape:label="suites"
     style="display:none">
    <g
       transform="matrix(0.33156546,0,0,0.33156546,5.8979358,-83.263068)"
       id="layer1-3"
       inkscape:label="Livello 1">
      <g
         transform="translate(1.334245,0.966375)"
         id="g1986">
        <path
           style="font-style:normal;font-weight:normal;font-size:144px;font-family:'Bitstream Vera Sans';fill:#000000;fill-opacity:1;stroke:none;stroke-width:1px;stroke-linecap:butt;stroke-linejoin:miter;stroke-opacity:1"
           d="m 297.3367,342.43409 c -1.2187,5.06258 -3.0937,9.60945 -5.625,13.59375 -2.53119,3.98444 -7.03901,8.8985 -13.53125,14.78125 -6.49214,5.88287 -10.6093,10.39067 -12.34375,13.53125 -1.73429,3.14066 -2.59369,6.32816 -2.59375,9.5625 8e-5,4.50003 1.50006,8.25002 4.5,11.25 3.00008,3.00002 6.65631,4.50001 10.96875,4.5 7.71991,-1e-5 13.69091,-5.6368 17.625,-11.78125 -0.29894,6.71846 -1.40595,12.0971 -3.34375,16.125 -2.08588,4.33593 -5.27981,7.92398 -9.59375,10.78125 -2.90481,1.92395 -8.14055,3.60938 -15.6875,5.0625 l -0.5625,2.40625 h 30.15625 30.1875 l -0.5625,-2.40625 c -7.54696,-1.45313 -12.7827,-3.13855 -15.6875,-5.0625 -4.31394,-2.85729 -7.50786,-6.44531 -9.59375,-10.78125 -1.93491,-4.0219 -3.04283,-9.38931 -3.34375,-16.09375 3.93435,6.13587 9.94555,11.74999 17.65625,11.75 4.31245,10e-6 7.96867,-1.49998 10.96875,-4.5 2.99991,-2.99998 4.49992,-6.74997 4.5,-11.25 -9e-5,-3.23434 -0.85946,-6.42184 -2.59375,-9.5625 -1.73447,-3.14058 -5.85162,-7.64838 -12.34375,-13.53125 -6.49223,-5.88275 -11.00005,-10.79681 -13.53125,-14.78125 -2.53129,-3.9843 -4.40629,-8.53117 -5.625,-13.59375 z"
           id="path1939"
           inkscape:connector-curvature="0" />
        <path
           style="font-style:normal;font-weight:normal;font-size:144px;font-family:'Bitstream Vera Sans';fill:#000000;fill-opacity:1;stroke:none;stroke-width:1px;stroke-linecap:butt;stroke-linejoin:miter;stroke-opacity:1"
           d="m 298.69678,535.32406 c -5.53119,7e-5 -10.164,1.85946 -13.9375,5.5625 -3.77337,3.70319 -5.65619,8.10944 -5.65625,13.21875 6e-5,4.17192 1.60944,8.53131 4.84375,13.125 -2.80186,-2.33453 -5.59548,-3.71875 -10.90625,-3.71875 -10.39121,-10e-6 -17.84375,8.52979 -17.84375,19.1875 -3e-5,11.30109 8.24765,19.90626 19.25,19.90625 11.0157,-2e-5 19.28177,-7.51392 23.34375,-16.65625 -0.18745,7.45314 -1.32027,13.35159 -3.40625,17.6875 -2.08588,4.33595 -5.28119,7.92189 -9.59375,10.78125 -2.90619,1.92187 -8.14055,3.60938 -15.6875,5.0625 l -0.5625,2.40625 h 30.15625 30.1875 l -0.5625,-2.40625 c -7.54695,-1.45312 -12.78132,-3.14063 -15.6875,-5.0625 -4.31256,-2.85936 -7.50786,-6.4453 -9.59375,-10.78125 -2.08598,-4.33591 -3.21881,-10.23436 -3.40625,-17.6875 4.06198,9.14233 12.32804,16.65623 23.34375,16.65625 11.00235,10e-6 19.25002,-8.60516 19.25,-19.90625 0,-10.65771 -7.45255,-19.18751 -17.84375,-19.1875 -5.31077,0 -8.1044,1.38422 -10.90625,3.71875 3.23431,-4.59369 4.8437,-8.95308 4.84375,-13.125 -6e-5,-5.10931 -1.88288,-9.51556 -5.65625,-13.21875 -3.7735,-3.70304 -8.43756,-5.56243 -13.96875,-5.5625 z"
           id="path1937"
           inkscape:connector-curvature="0" />
        <path
           style="font-style:normal;font-weight:normal;font-size:144px;font-family:'Bitstream Vera Sans';fill:#d40000;fill-opacity:1;stroke:none;stroke-width:1px;stroke-linecap:butt;stroke-linejoin:miter;stroke-opacity:1"
           d="m 299.71287,335.9553 c -1.45317,-5.53125 -3.52738,-10.72265 -6.22266,-15.57422 -2.69534,-4.85155 -7.91018,-12.3867 -15.64453,-22.60547 -5.67189,-7.49996 -9.16407,-12.25777 -10.47656,-14.27344 -2.15626,-3.2812 -3.71485,-6.29291 -4.67578,-9.03516 -0.96095,-2.74212 -1.44141,-5.51946 -1.44141,-8.33203 0,-5.20305 1.73437,-9.56242 5.20313,-13.07812 3.46873,-3.51554 7.75779,-5.27335 12.86718,-5.27344 5.15623,9e-5 9.63278,1.82821 13.42969,5.48438 2.85934,2.71882 5.17965,6.77351 6.96094,12.16406 1.54683,-5.2968 3.72651,-9.32805 6.53906,-12.09375 3.89057,-3.74992 8.39057,-5.62492 13.5,-5.625 5.06243,8e-5 9.35149,1.74618 12.86719,5.23828 3.51554,3.49226 5.27336,7.65242 5.27344,12.48047 -8e-5,4.21881 -1.03133,8.61334 -3.09375,13.18359 -2.06258,4.57037 -6.04695,10.55864 -11.95313,17.96485 -7.68756,9.70315 -13.28911,17.67189 -16.80469,23.90625 -2.76567,4.92188 -4.87504,10.07812 -6.32812,15.46875 z"
           id="path1935"
           inkscape:connector-curvature="0" />
        <path
           style="font-style:normal;font-weight:normal;font-size:144px;font-family:'Bitstream Vera Sans';fill:#d40000;fill-opacity:1;stroke:none;stroke-width:1px;stroke-linecap:butt;stroke-linejoin:miter;stroke-opacity:1"
           d="m 297.78618,439.12904 c -9.49157,15.58151 -20.38672,30.28405 -32.34375,44.0625 11.96862,13.77165 23.04852,28.43719 32.34375,44.15625 9.29523,-15.71906 20.37513,-30.3846 32.34375,-44.15625 -11.95703,-13.77845 -22.85218,-28.48099 -32.34375,-44.0625 z"
           id="text1928"
           inkscape:connector-curvature="0" />
      </g>
    </g>
  </g>
  <g
     inkscape:groupmode="layer"
     id="layer4"
     inkscape:label="circle"
     style="display:inline">
    <circle
       style="opacity:1;fill:#ffffff;fill-opacity:1;stroke:none;stroke-width:0.89810103;stroke-miterlimit:4;stroke-dasharray:none;stroke-dashoffset:0;stroke-opacity:1"
       id="path5852"
       cx="105.07738"
       cy="77.773796"
       r="43.670372" />
    <g
       inkscape:label="suites copy"
       id="g5905"
       inkscape:groupmode="layer">
      <g
         inkscape:label="Livello 1"
         id="g5903"
         transform="matrix(0.33156546,0,0,0.33156546,6.7247588,-83.263068)">
        <g
           id="g5901"
           transform="translate(1.334245,0.966375)">
          <path
             inkscape:connector-curvature="0"
             id="path5893"
             d="m 233.67878,387.99261 c -1.2187,5.06258 -3.0937,9.60945 -5.625,13.59375 -2.53119,3.98444 -7.03901,8.8985 -13.53125,14.78125 -6.49214,5.88287 -10.6093,10.39067 -12.34375,13.53125 -1.73429,3.14066 -2.59369,6.32816 -2.59375,9.5625 8e-5,4.50003 1.50006,8.25002 4.5,11.25 3.00008,3.00002 6.65631,4.50001 10.96875,4.5 7.71991,-1e-5 13.69091,-5.6368 17.625,-11.78125 -0.29894,6.71846 -1.40595,12.0971 -3.34375,16.125 -2.08588,4.33593 -5.27981,7.92398 -9.59375,10.78125 -2.90481,1.92395 -8.14055,3.60938 -15.6875,5.0625 l -0.5625,2.40625 h 30.15625 30.1875 l -0.5625,-2.40625 c -7.54696,-1.45313 -12.7827,-3.13855 -15.6875,-5.0625 -4.31394,-2.85729 -7.50786,-6.44531 -9.59375,-10.78125 -1.93491,-4.0219 -3.04283,-9.38931 -3.34375,-16.09375 3.93435,6.13587 9.94555,11.74999 17.65625,11.75 4.31245,10e-6 7.96867,-1.49998 10.96875,-4.5 2.99991,-2.99998 4.49992,-6.74997 4.5,-11.25 -9e-5,-3.23434 -0.85946,-6.42184 -2.59375,-9.5625 -1.73447,-3.14058 -5.85162,-7.64838 -12.34375,-13.53125 -6.49223,-5.88275 -11.00005,-10.79681 -13.53125,-14.78125 -2.53129,-3.9843 -4.40629,-8.53117 -5.625,-13.59375 z"
             style="font-style:normal;font-weight:normal;font-size:144px;font-family:'Bitstream Vera Sans';fill:#000000;fill-opacity:1;stroke:none;stroke-width:1px;stroke-linecap:butt;stroke-linejoin:miter;stroke-opacity:1" />
          <path
             inkscape:connector-curvature="0"
             id="path5895"
             d="m 345.40263,491.68441 c -5.53119,7e-5 -10.164,1.85946 -13.9375,5.5625 -3.77337,3.70319 -5.65619,8.10944 -5.65625,13.21875 6e-5,4.17192 1.60944,8.53131 4.84375,13.125 -2.80186,-2.33453 -5.59548,-3.71875 -10.90625,-3.71875 -10.39121,-10e-6 -17.84375,8.52979 -17.84375,19.1875 -3e-5,11.30109 8.24765,19.90626 19.25,19.90625 11.0157,-2e-5 19.28177,-7.51392 23.34375,-16.65625 -0.18745,7.45314 -1.32027,13.35159 -3.40625,17.6875 -2.08588,4.33595 -5.28119,7.92189 -9.59375,10.78125 -2.90619,1.92187 -8.14055,3.60938 -15.6875,5.0625 l -0.5625,2.40625 h 30.15625 30.1875 l -0.5625,-2.40625 c -7.54695,-1.45312 -12.78132,-3.14063 -15.6875,-5.0625 -4.31256,-2.85936 -7.50786,-6.4453 -9.59375,-10.78125 -2.08598,-4.33591 -3.21881,-10.23436 -3.40625,-17.6875 4.06198,9.14233 12.32804,16.65623 23.34375,16.65625 11.00235,1e-5 19.25002,-8.60516 19.25,-19.90625 0,-10.65771 -7.45255,-19.18751 -17.84375,-19.1875 -5.31077,0 -8.1044,1.38422 -10.90625,3.71875 3.23431,-4.59369 4.8437,-8.95308 4.84375,-13.125 -6e-5,-5.10931 -1.88288,-9.51556 -5.65625,-13.21875 -3.7735,-3.70304 -8.43756,-5.56243 -13.96875,-5.5625 z"
             style="font-style:normal;font-weight:normal;font-size:144px;font-family:'Bitstream Vera Sans';fill:#000000;fill-opacity:1;stroke:none;stroke-width:1px;stroke-linecap:butt;stroke-linejoin:miter;stroke-opacity:1" />
          <path
             inkscape:connector-curvature="0"
             id="path5897"
             d="m 345.55888,477.01996 c -1.45317,-5.53125 -3.52738,-10.72265 -6.22266,-15.57422 -2.69534,-4.85155 -7.91018,-12.3867 -15.64453,-22.60547 -5.67189,-7.49996 -9.16407,-12.25777 -10.47656,-14.27344 -2.15626,-3.2812 -3.71485,-6.29291 -4.67578,-9.03516 -0.96095,-2.74212 -1.44141,-5.51946 -1.44141,-8.33203 0,-5.20305 1.73437,-9.56242 5.20313,-13.07812 3.46873,-3.51554 7.75779,-5.27335 12.86718,-5.27344 5.15623,9e-5 9.63278,1.82821 13.42969,5.48438 2.85934,2.71882 5.17965,6.77351 6.96094,12.16406 1.54683,-5.2968 3.72651,-9.32805 6.53906,-12.09375 3.89057,-3.74992 8.39057,-5.62492 13.5,-5.625 5.06243,8e-5 9.35149,1.74618 12.86719,5.23828 3.51554,3.49226 5.27336,7.65242 5.27344,12.48047 -8e-5,4.21881 -1.03133,8.61334 -3.09375,13.18359 -2.06258,4.57037 -6.04695,10.55864 -11.95313,17.96485 -7.68756,9.70315 -13.28911,17.67189 -16.80469,23.90625 -2.76567,4.92188 -4.87504,10.07812 -6.32812,15.46875 z"
             style="font-style:normal;font-weight:normal;font-size:144px;font-family:'Bitstream Vera Sans';fill:#d40000;fill-opacity:1;stroke:none;stroke-width:1px;stroke-linecap:butt;stroke-linejoin:miter;stroke-opacity:1" />
          <path
             inkscape:connector-curvature="0"
             id="path5899"
             d="m 233.67878,490.85629 c -9.49157,15.58151 -20.38672,30.28405 -32.34375,44.0625 11.96862,13.77165 23.04852,28.43719 32.34375,44.15625 9.29523,-15.71906 20.37513,-30.3846 32.34375,-44.15625 -11.95703,-13.77845 -22.85218,-28.48099 -32.34375,-44.0625 z"
             style="font-style:normal;font-weight:normal;font-size:144px;font-family:'Bitstream Vera Sans';fill:#d40000;fill-opacity:1;stroke:none;stroke-width:1px;stroke-linecap:butt;stroke-linejoin:miter;stroke-opacity:1" />
        </g>
      </g>
    </g>
  </g>
  <g
     inkscape:groupmode="layer"
     id="layer2"
     inkscape:label="plane" />
</svg>
