<?xml version="1.0" encoding="UTF-8" standalone="no"?>
<!-- Created with Inkscape (http://www.inkscape.org/) -->

<svg
   xmlns:dc="http://purl.org/dc/elements/1.1/"
   xmlns:cc="http://creativecommons.org/ns#"
   xmlns:rdf="http://www.w3.org/1999/02/22-rdf-syntax-ns#"
   xmlns:svg="http://www.w3.org/2000/svg"
   xmlns="http://www.w3.org/2000/svg"
   xmlns:sodipodi="http://sodipodi.sourceforge.net/DTD/sodipodi-0.dtd"
   xmlns:inkscape="http://www.inkscape.org/namespaces/inkscape"
   width="200"
   height="150"
   viewBox="0 0 52.916665 39.687501"
   version="1.1"
   id="roulette"
   inkscape:version="0.92.1 r15371"
   sodipodi:docname="roulette.svg">
  <defs
     id="defs4980" />
  <sodipodi:namedview
     id="base"
     pagecolor="#ffffff"
     bordercolor="#666666"
     borderopacity="1.0"
     inkscape:pageopacity="0.0"
     inkscape:pageshadow="2"
     inkscape:zoom="1.979899"
     inkscape:cx="64.863562"
     inkscape:cy="36.529424"
     inkscape:document-units="mm"
     inkscape:current-layer="layer1"
     showgrid="false"
     units="px"
     inkscape:window-width="1245"
     inkscape:window-height="696"
     inkscape:window-x="111"
     inkscape:window-y="0"
     inkscape:window-maximized="0" />
  <metadata
     id="metadata4983">
    <rdf:RDF>
      <cc:Work
         rdf:about="">
        <dc:format>image/svg+xml</dc:format>
        <dc:type
           rdf:resource="http://purl.org/dc/dcmitype/StillImage" />
        <dc:title />
      </cc:Work>
    </rdf:RDF>
  </metadata>
  <g
     inkscape:label="Layer 1"
     inkscape:groupmode="layer"
     id="layer1"
     transform="translate(0,-257.31248)"
     style="opacity:1">
    <g
       style="font-weight:normal;font-family:'Times New Roman';fill-rule:nonzero;stroke-miterlimit:10"
       id="g5446"
       transform="matrix(0.53546811,0,0,0.53546811,26.385896,277.30588)">
      <polygon
         id="polygon4998"
         points="31,0 48,0 47.35,-7.9 30.58,-5.1 "
         style="fill:#ffffff;fill-opacity:1;stroke:none" />
      <polygon
         id="polygon5000"
         points="30.58,-5.1 47.35,-7.9 45.4,-15.59 29.32,-10.07 "
         style="fill:#5555aa;fill-opacity:1;stroke:none" />
      <polygon
         id="polygon5002"
         points="29.32,-10.07 45.4,-15.59 42.21,-22.85 27.26,-14.75 "
         style="fill:#ffffff;fill-opacity:1;stroke:none" />
      <polygon
         id="polygon5004"
         points="27.26,-14.75 42.21,-22.85 37.88,-29.48 24.46,-19.04 "
         style="fill:#5555aa;fill-opacity:1;stroke:none" />
      <polygon
         id="polygon5006"
         points="24.46,-19.04 37.88,-29.48 32.51,-35.31 21,-22.81 "
         style="fill:#ffffff;fill-opacity:1;stroke:none" />
      <polygon
         id="polygon5008"
         points="21,-22.81 32.51,-35.31 26.25,-40.18 16.96,-25.95 "
         style="fill:#5555aa;fill-opacity:1;stroke:none" />
      <polygon
         id="polygon5010"
         points="16.96,-25.95 26.25,-40.18 19.28,-43.96 12.45,-28.39 "
         style="fill:#ffffff;fill-opacity:1;stroke:none" />
      <polygon
         id="polygon5012"
         points="12.45,-28.39 19.28,-43.96 11.78,-46.53 7.61,-30.05 "
         style="fill:#5555aa;fill-opacity:1;stroke:none" />
      <polygon
         id="polygon5014"
         points="7.61,-30.05 11.78,-46.53 3.96,-47.84 2.56,-30.89 "
         style="fill:#ffffff;fill-opacity:1;stroke:none" />
      <polygon
         id="polygon5016"
         points="2.56,-30.89 3.96,-47.84 -3.96,-47.84 -2.56,-30.89 "
         style="fill:#5555aa;fill-opacity:1;stroke:none" />
      <polygon
         id="polygon5018"
         points="-2.56,-30.89 -3.96,-47.84 -11.78,-46.53 -7.61,-30.05 "
         style="fill:#ffffff;fill-opacity:1;stroke:none" />
      <polygon
         id="polygon5020"
         points="-7.61,-30.05 -11.78,-46.53 -19.28,-43.96 -12.45,-28.39 "
         style="fill:#5555aa;fill-opacity:1;stroke:none" />
      <polygon
         id="polygon5022"
         points="-12.45,-28.39 -19.28,-43.96 -26.25,-40.18 -16.96,-25.95 "
         style="fill:#ffffff;fill-opacity:1;stroke:none" />
      <polygon
         id="polygon5024"
         points="-16.96,-25.95 -26.25,-40.18 -32.51,-35.31 -21,-22.81 "
         style="fill:#5555aa;fill-opacity:1;stroke:none" />
      <polygon
         id="polygon5026"
         points="-21,-22.81 -32.51,-35.31 -37.88,-29.48 -24.46,-19.04 "
         style="fill:#ffffff;fill-opacity:1;stroke:none" />
      <polygon
         id="polygon5028"
         points="-24.46,-19.04 -37.88,-29.48 -42.21,-22.85 -27.26,-14.75 "
         style="fill:#5555aa;fill-opacity:1;stroke:none" />
      <polygon
         id="polygon5030"
         points="-27.26,-14.75 -42.21,-22.85 -45.4,-15.59 -29.32,-10.07 "
         style="fill:#ffffff;fill-opacity:1;stroke:none" />
      <polygon
         id="polygon5032"
         points="-29.32,-10.07 -45.4,-15.59 -47.35,-7.9 -30.58,-5.1 "
         style="fill:#5555aa;fill-opacity:1;stroke:none" />
      <polygon
         id="polygon5034"
         points="-30.58,-5.1 -47.35,-7.9 -48,0 -31,0 "
         style="fill:#ffffff;fill-opacity:1;stroke:none" />
      <polygon
         id="polygon5036"
         points="-31,0 -48,0 -47.35,7.9 -30.58,5.1 "
         style="fill:#5555aa;fill-opacity:1;stroke:none" />
      <polygon
         id="polygon5038"
         points="-30.58,5.1 -47.35,7.9 -45.4,15.59 -29.32,10.07 "
         style="fill:#ffffff;fill-opacity:1;stroke:none" />
      <polygon
         id="polygon5040"
         points="-29.32,10.07 -45.4,15.59 -42.21,22.85 -27.26,14.75 "
         style="fill:#5555aa;fill-opacity:1;stroke:none" />
      <polygon
         id="polygon5042"
         points="-27.26,14.75 -42.21,22.85 -37.88,29.48 -24.46,19.04 "
         style="fill:#ffffff;fill-opacity:1;stroke:none" />
      <polygon
         id="polygon5044"
         points="-24.46,19.04 -37.88,29.48 -32.51,35.31 -21,22.81 "
         style="fill:#5555aa;fill-opacity:1;stroke:none" />
      <polygon
         id="polygon5046"
         points="-21,22.81 -32.51,35.31 -26.25,40.18 -16.96,25.95 "
         style="fill:#ffffff;fill-opacity:1;stroke:none" />
      <polygon
         id="polygon5048"
         points="-16.96,25.95 -26.25,40.18 -19.28,43.96 -12.45,28.39 "
         style="fill:#5555aa;fill-opacity:1;stroke:none" />
      <polygon
         id="polygon5050"
         points="-12.45,28.39 -19.28,43.96 -11.78,46.53 -7.61,30.05 "
         style="fill:#ffffff;fill-opacity:1;stroke:none" />
      <polygon
         id="polygon5052"
         points="-7.61,30.05 -11.78,46.53 -3.96,47.84 -2.56,30.89 "
         style="fill:#5555aa;fill-opacity:1;stroke:none" />
      <polygon
         id="polygon5054"
         points="-2.56,30.89 -3.96,47.84 3.96,47.84 2.56,30.89 "
         style="fill:#ffffff;fill-opacity:1;stroke:none" />
      <polygon
         id="polygon5056"
         points="2.56,30.89 3.96,47.84 11.78,46.53 7.61,30.05 "
         style="fill:#5555aa;fill-opacity:1;stroke:none" />
      <polygon
         id="polygon5058"
         points="7.61,30.05 11.78,46.53 19.28,43.96 12.45,28.39 "
         style="fill:#ffffff;fill-opacity:1;stroke:none" />
      <polygon
         id="polygon5060"
         points="12.45,28.39 19.28,43.96 26.25,40.18 16.96,25.95 "
         style="fill:#5555aa;fill-opacity:1;stroke:none" />
      <polygon
         id="polygon5062"
         points="16.96,25.95 26.25,40.18 32.51,35.31 21,22.81 "
         style="fill:#ffffff;fill-opacity:1;stroke:none" />
      <polygon
         id="polygon5064"
         points="21,22.81 32.51,35.31 37.88,29.48 24.46,19.04 "
         style="fill:#5555aa;fill-opacity:1;stroke:none" />
      <polygon
         id="polygon5066"
         points="24.46,19.04 37.88,29.48 42.21,22.85 27.26,14.75 "
         style="fill:#ffffff;fill-opacity:1;stroke:none" />
      <polygon
         id="polygon5068"
         points="27.26,14.75 42.21,22.85 45.4,15.59 29.32,10.07 "
         style="fill:#5555aa;fill-opacity:1;stroke:none" />
      <polygon
         id="polygon5070"
         points="29.32,10.07 45.4,15.59 47.35,7.9 30.58,5.1 "
         style="fill:#ffffff;fill-opacity:1;stroke:none" />
      <polygon
         id="polygon5072"
         points="30.58,5.1 47.35,7.9 48,0 31,0 "
         style="fill:#5555aa;fill-opacity:1;stroke:none" />
      <circle
         id="circle5152"
         r="48"
         cy="0"
         cx="0"
         style="fill:none;stroke:#5555aa;stroke-width:1.39999998;stroke-opacity:1" />
      <circle
         id="circle5154"
         r="40"
         cy="0"
         cx="0"
         style="fill:none;stroke:#5555aa;stroke-width:0.69999999;stroke-opacity:1" />
      <circle
         id="circle5156"
         r="31"
         cy="0"
         cx="0"
         style="fill:#ffffff;fill-opacity:1;stroke:#5555aa;stroke-width:1.39999998;stroke-opacity:1" />
    </g>
    <g
       id="g4880">
      <g
         style=""
         id="g4550">
        <ellipse
           style="opacity:1;fill:#5555aa;fill-opacity:1;stroke:#5555aa;stroke-width:0.26311526;stroke-miterlimit:4;stroke-dasharray:none;stroke-dashoffset:0;stroke-opacity:1"
           id="path4526"
           ry="9.673502"
           rx="1.2027287"
           cy="276.80203"
           cx="26.831474" />
        <ellipse
           cx="276.94714"
           cy="-24.838842"
           rx="1.2023933"
           ry="9.7279606"
           id="ellipse4528"
           style="opacity:1;fill:#5555aa;fill-opacity:1;stroke:#5555aa;stroke-width:0.26381803;stroke-miterlimit:4;stroke-dasharray:none;stroke-dashoffset:0;stroke-opacity:1"
           transform="matrix(0.00739435,0.99997266,-0.99998468,0.00553529,0,0)" />
        <circle
           style="opacity:1;fill:#5555aa;fill-opacity:1;stroke:#5555aa;stroke-width:0.24709803;stroke-miterlimit:4;stroke-dasharray:none;stroke-dashoffset:0;stroke-opacity:1"
           id="path4536"
           cx="15.988266"
           cy="276.75787"
           r="1.0089477" />
        <circle
           r="1.0089477"
           cy="265.95807"
           cx="26.832714"
           id="circle4538"
           style="opacity:1;fill:#5555aa;fill-opacity:1;stroke:#5555aa;stroke-width:0.24709803;stroke-miterlimit:4;stroke-dasharray:none;stroke-dashoffset:0;stroke-opacity:1" />
        <circle
           style="opacity:1;fill:#5555aa;fill-opacity:1;stroke:#5555aa;stroke-width:0.24709803;stroke-miterlimit:4;stroke-dasharray:none;stroke-dashoffset:0;stroke-opacity:1"
           id="circle4540"
           cx="37.908512"
           cy="276.67688"
           r="1.0089477" />
        <circle
           r="1.0089477"
           cy="287.64804"
           cx="26.832714"
           id="circle4542"
           style="opacity:1;fill:#5555aa;fill-opacity:1;stroke:#5555aa;stroke-width:0.24709803;stroke-miterlimit:4;stroke-dasharray:none;stroke-dashoffset:0;stroke-opacity:1" />
      </g>
      <circle
         r="2.0360858"
         cy="276.75177"
         cx="26.695755"
         id="path4552"
         style="opacity:1;fill:#ffffff;fill-opacity:1;stroke:#5555aa;stroke-width:1;stroke-miterlimit:4;stroke-dasharray:none;stroke-dashoffset:0;stroke-opacity:1" />
    </g>
  </g>
</svg>
