<?xml version="1.0" encoding="UTF-8" standalone="no"?>
<!-- Created with Inkscape (http://www.inkscape.org/) -->

<svg
   xmlns:dc="http://purl.org/dc/elements/1.1/"
   xmlns:cc="http://creativecommons.org/ns#"
   xmlns:rdf="http://www.w3.org/1999/02/22-rdf-syntax-ns#"
   xmlns:svg="http://www.w3.org/2000/svg"
   xmlns="http://www.w3.org/2000/svg"
   xmlns:sodipodi="http://sodipodi.sourceforge.net/DTD/sodipodi-0.dtd"
   xmlns:inkscape="http://www.inkscape.org/namespaces/inkscape"
   width="200"
   height="150"
   viewBox="0 0 200 150"
   version="1.1"
   id="roulette"
   inkscape:version="0.92.1 r15371"
   sodipodi:docname="roulette.svg">
  <sodipodi:namedview
     id="base"
     pagecolor="#ffffff"
     bordercolor="#666666"
     borderopacity="1.0"
     inkscape:pageopacity="0.0"
     inkscape:pageshadow="2"
     inkscape:zoom="1.979899"
     inkscape:cx="33.562734"
     inkscape:cy="48.748825"
     inkscape:document-units="px"
     inkscape:current-layer="layer1"
     showgrid="false"
     units="px"
     inkscape:window-width="1245"
     inkscape:window-height="696"
     inkscape:window-x="111"
     inkscape:window-y="0"
     inkscape:window-maximized="0" />
  <defs
     id="defs4980" />
  <metadata
     id="metadata4983">
    <rdf:RDF>
      <cc:Work
         rdf:about="">
        <dc:format>image/svg+xml</dc:format>
        <dc:type
           rdf:resource="http://purl.org/dc/dcmitype/StillImage" />
        <dc:title />
      </cc:Work>
    </rdf:RDF>
  </metadata>
  <g
     style="opacity:1"
     transform="translate(0,-257.31248)"
     id="layer1"
     inkscape:groupmode="layer"
     inkscape:label="Layer 1">
    <g
       transform="matrix(1.5259154,0,0,1.5259154,99.369411,332.61174)"
       id="g5446"
       style="font-weight:normal;font-family:'Times New Roman';fill-rule:nonzero;stroke-miterlimit:10;opacity:1">
      <polygon
         style="fill:#ffffff;fill-opacity:1;stroke:none;opacity:1"
         points="47.35,-7.9 30.58,-5.1 31,0 48,0 "
         id="polygon4998" />
      <polygon
         style="fill:#4c4c4c;fill-opacity:1;stroke:none;opacity:1"
         points="45.4,-15.59 29.32,-10.07 30.58,-5.1 47.35,-7.9 "
         id="polygon5000" />
      <polygon
         style="fill:#ffffff;fill-opacity:1;stroke:none;opacity:1"
         points="42.21,-22.85 27.26,-14.75 29.32,-10.07 45.4,-15.59 "
         id="polygon5002" />
      <polygon
         style="fill:#4c4c4c;fill-opacity:1;stroke:none;opacity:1"
         points="37.88,-29.48 24.46,-19.04 27.26,-14.75 42.21,-22.85 "
         id="polygon5004" />
      <polygon
         style="fill:#ffffff;fill-opacity:1;stroke:none;opacity:1"
         points="32.51,-35.31 21,-22.81 24.46,-19.04 37.88,-29.48 "
         id="polygon5006" />
      <polygon
         style="fill:#4c4c4c;fill-opacity:1;stroke:none;opacity:1"
         points="26.25,-40.18 16.96,-25.95 21,-22.81 32.51,-35.31 "
         id="polygon5008" />
      <polygon
         style="fill:#ffffff;fill-opacity:1;stroke:none;opacity:1"
         points="19.28,-43.96 12.45,-28.39 16.96,-25.95 26.25,-40.18 "
         id="polygon5010" />
      <polygon
         style="fill:#4c4c4c;fill-opacity:1;stroke:none;opacity:1"
         points="11.78,-46.53 7.61,-30.05 12.45,-28.39 19.28,-43.96 "
         id="polygon5012" />
      <polygon
         style="fill:#ffffff;fill-opacity:1;stroke:none;opacity:1"
         points="3.96,-47.84 2.56,-30.89 7.61,-30.05 11.78,-46.53 "
         id="polygon5014" />
      <polygon
         style="fill:#4c4c4c;fill-opacity:1;stroke:none;opacity:1"
         points="-3.96,-47.84 -2.56,-30.89 2.56,-30.89 3.96,-47.84 "
         id="polygon5016" />
      <polygon
         style="fill:#ffffff;fill-opacity:1;stroke:none;opacity:1"
         points="-11.78,-46.53 -7.61,-30.05 -2.56,-30.89 -3.96,-47.84 "
         id="polygon5018" />
      <polygon
         style="fill:#4c4c4c;fill-opacity:1;stroke:none;opacity:1"
         points="-19.28,-43.96 -12.45,-28.39 -7.61,-30.05 -11.78,-46.53 "
         id="polygon5020" />
      <polygon
         style="fill:#ffffff;fill-opacity:1;stroke:none;opacity:1"
         points="-26.25,-40.18 -16.96,-25.95 -12.45,-28.39 -19.28,-43.96 "
         id="polygon5022" />
      <polygon
         style="fill:#4c4c4c;fill-opacity:1;stroke:none;opacity:1"
         points="-32.51,-35.31 -21,-22.81 -16.96,-25.95 -26.25,-40.18 "
         id="polygon5024" />
      <polygon
         style="fill:#ffffff;fill-opacity:1;stroke:none;opacity:1"
         points="-37.88,-29.48 -24.46,-19.04 -21,-22.81 -32.51,-35.31 "
         id="polygon5026" />
      <polygon
         style="fill:#4c4c4c;fill-opacity:1;stroke:none;opacity:1"
         points="-42.21,-22.85 -27.26,-14.75 -24.46,-19.04 -37.88,-29.48 "
         id="polygon5028" />
      <polygon
         style="fill:#ffffff;fill-opacity:1;stroke:none;opacity:1"
         points="-45.4,-15.59 -29.32,-10.07 -27.26,-14.75 -42.21,-22.85 "
         id="polygon5030" />
      <polygon
         style="fill:#4c4c4c;fill-opacity:1;stroke:none;opacity:1"
         points="-47.35,-7.9 -30.58,-5.1 -29.32,-10.07 -45.4,-15.59 "
         id="polygon5032" />
      <polygon
         style="fill:#ffffff;fill-opacity:1;stroke:none;opacity:1"
         points="-48,0 -31,0 -30.58,-5.1 -47.35,-7.9 "
         id="polygon5034" />
      <polygon
         style="fill:#4c4c4c;fill-opacity:1;stroke:none;opacity:1"
         points="-47.35,7.9 -30.58,5.1 -31,0 -48,0 "
         id="polygon5036" />
      <polygon
         style="fill:#ffffff;fill-opacity:1;stroke:none;opacity:1"
         points="-45.4,15.59 -29.32,10.07 -30.58,5.1 -47.35,7.9 "
         id="polygon5038" />
      <polygon
         style="fill:#4c4c4c;fill-opacity:1;stroke:none;opacity:1"
         points="-42.21,22.85 -27.26,14.75 -29.32,10.07 -45.4,15.59 "
         id="polygon5040" />
      <polygon
         style="fill:#ffffff;fill-opacity:1;stroke:none;opacity:1"
         points="-37.88,29.48 -24.46,19.04 -27.26,14.75 -42.21,22.85 "
         id="polygon5042" />
      <polygon
         style="fill:#4c4c4c;fill-opacity:1;stroke:none;opacity:1"
         points="-32.51,35.31 -21,22.81 -24.46,19.04 -37.88,29.48 "
         id="polygon5044" />
      <polygon
         style="fill:#ffffff;fill-opacity:1;stroke:none;opacity:1"
         points="-26.25,40.18 -16.96,25.95 -21,22.81 -32.51,35.31 "
         id="polygon5046" />
      <polygon
         style="fill:#4c4c4c;fill-opacity:1;stroke:none;opacity:1"
         points="-19.28,43.96 -12.45,28.39 -16.96,25.95 -26.25,40.18 "
         id="polygon5048" />
      <polygon
         style="fill:#ffffff;fill-opacity:1;stroke:none;opacity:1"
         points="-11.78,46.53 -7.61,30.05 -12.45,28.39 -19.28,43.96 "
         id="polygon5050" />
      <polygon
         style="fill:#4c4c4c;fill-opacity:1;stroke:none;opacity:1"
         points="-3.96,47.84 -2.56,30.89 -7.61,30.05 -11.78,46.53 "
         id="polygon5052" />
      <polygon
         style="fill:#ffffff;fill-opacity:1;stroke:none;opacity:1"
         points="3.96,47.84 2.56,30.89 -2.56,30.89 -3.96,47.84 "
         id="polygon5054" />
      <polygon
         style="fill:#4c4c4c;fill-opacity:1;stroke:none;opacity:1"
         points="11.78,46.53 7.61,30.05 2.56,30.89 3.96,47.84 "
         id="polygon5056" />
      <polygon
         style="fill:#ffffff;fill-opacity:1;stroke:none;opacity:1"
         points="19.28,43.96 12.45,28.39 7.61,30.05 11.78,46.53 "
         id="polygon5058" />
      <polygon
         style="fill:#4c4c4c;fill-opacity:1;stroke:none;opacity:1"
         points="26.25,40.18 16.96,25.95 12.45,28.39 19.28,43.96 "
         id="polygon5060" />
      <polygon
         style="fill:#ffffff;fill-opacity:1;stroke:none;opacity:1"
         points="32.51,35.31 21,22.81 16.96,25.95 26.25,40.18 "
         id="polygon5062" />
      <polygon
         style="fill:#4c4c4c;fill-opacity:1;stroke:none;opacity:1"
         points="37.88,29.48 24.46,19.04 21,22.81 32.51,35.31 "
         id="polygon5064" />
      <polygon
         style="fill:#ffffff;fill-opacity:1;stroke:none;opacity:1"
         points="42.21,22.85 27.26,14.75 24.46,19.04 37.88,29.48 "
         id="polygon5066" />
      <polygon
         style="fill:#4c4c4c;fill-opacity:1;stroke:none;opacity:1"
         points="45.4,15.59 29.32,10.07 27.26,14.75 42.21,22.85 "
         id="polygon5068" />
      <polygon
         style="fill:#ffffff;fill-opacity:1;stroke:none;opacity:1"
         points="47.35,7.9 30.58,5.1 29.32,10.07 45.4,15.59 "
         id="polygon5070" />
      <polygon
         style="fill:#4c4c4c;fill-opacity:1;stroke:none;opacity:1"
         points="48,0 31,0 30.58,5.1 47.35,7.9 "
         id="polygon5072" />
      <circle
         style="fill:none;stroke:#4c4c4c;stroke-width:1.39999998;stroke-opacity:1;opacity:1"
         cx="0"
         cy="0"
         r="48"
         id="circle5152" />
      <circle
         style="fill:none;stroke:#4c4c4c;stroke-width:0.69999999;stroke-opacity:1;opacity:1"
         cx="0"
         cy="0"
         r="40"
         id="circle5154" />
      <circle
         style="fill:#ffffff;fill-opacity:1;stroke:#4c4c4c;stroke-width:1.39999998;stroke-opacity:1;opacity:1"
         cx="0"
         cy="0"
         r="31"
         id="circle5156" />
    </g>
    <g
       transform="matrix(2.8496851,0,0,2.8496851,24.177927,-457.62267)"
       id="g4880">
      <g
         id="g4550">
        <ellipse
           cx="26.831474"
           cy="276.80203"
           rx="1.2027287"
           ry="9.673502"
           id="path4526"
           style="opacity:1;fill:#4c4c4c;fill-opacity:1;stroke:#4c4c4c;stroke-width:0.26311526;stroke-miterlimit:4;stroke-dasharray:none;stroke-dashoffset:0;stroke-opacity:1" />
        <ellipse
           transform="matrix(0.00739435,0.99997266,-0.99998468,0.00553529,0,0)"
           style="opacity:1;fill:#4c4c4c;fill-opacity:1;stroke:#4c4c4c;stroke-width:0.26381803;stroke-miterlimit:4;stroke-dasharray:none;stroke-dashoffset:0;stroke-opacity:1"
           id="ellipse4528"
           ry="9.7279606"
           rx="1.2023933"
           cy="-24.838842"
           cx="276.94714" />
        <circle
           r="1.0089477"
           cy="276.75787"
           cx="15.988266"
           id="path4536"
           style="opacity:1;fill:#4c4c4c;fill-opacity:1;stroke:#4c4c4c;stroke-width:0.24709803;stroke-miterlimit:4;stroke-dasharray:none;stroke-dashoffset:0;stroke-opacity:1" />
        <circle
           style="opacity:1;fill:#4c4c4c;fill-opacity:1;stroke:#4c4c4c;stroke-width:0.24709803;stroke-miterlimit:4;stroke-dasharray:none;stroke-dashoffset:0;stroke-opacity:1"
           id="circle4538"
           cx="26.832714"
           cy="265.95807"
           r="1.0089477" />
        <circle
           r="1.0089477"
           cy="276.67688"
           cx="37.908512"
           id="circle4540"
           style="opacity:1;fill:#4c4c4c;fill-opacity:1;stroke:#4c4c4c;stroke-width:0.24709803;stroke-miterlimit:4;stroke-dasharray:none;stroke-dashoffset:0;stroke-opacity:1" />
        <circle
           style="opacity:1;fill:#4c4c4c;fill-opacity:1;stroke:#4c4c4c;stroke-width:0.24709803;stroke-miterlimit:4;stroke-dasharray:none;stroke-dashoffset:0;stroke-opacity:1"
           id="circle4542"
           cx="26.832714"
           cy="287.64804"
           r="1.0089477" />
      </g>
      <circle
         style="opacity:1;fill:#ffffff;fill-opacity:1;stroke:#4c4c4c;stroke-width:1;stroke-miterlimit:4;stroke-dasharray:none;stroke-dashoffset:0;stroke-opacity:1"
         id="path4552"
         cx="26.695755"
         cy="276.75177"
         r="2.0360858" />
    </g>
  </g>
</svg>
