<?xml version="1.0" encoding="UTF-8" standalone="no"?>
<!-- Created with Inkscape (http://www.inkscape.org/) -->

<svg
   xmlns:dc="http://purl.org/dc/elements/1.1/"
   xmlns:cc="http://creativecommons.org/ns#"
   xmlns:rdf="http://www.w3.org/1999/02/22-rdf-syntax-ns#"
   xmlns:svg="http://www.w3.org/2000/svg"
   xmlns="http://www.w3.org/2000/svg"
   xmlns:sodipodi="http://sodipodi.sourceforge.net/DTD/sodipodi-0.dtd"
   xmlns:inkscape="http://www.inkscape.org/namespaces/inkscape"
   width="210"
   height="310"
   id="svg6265"
   version="1.1"
   inkscape:version="0.48.4 r9939"
   sodipodi:docname="New document 11">
  <defs
     id="defs6267" />
  <sodipodi:namedview
     id="base"
     pagecolor="#ffffff"
     bordercolor="#666666"
     borderopacity="1.0"
     inkscape:pageopacity="0.0"
     inkscape:pageshadow="2"
     inkscape:zoom="1.4"
     inkscape:cx="168.9641"
     inkscape:cy="163.40344"
     inkscape:document-units="px"
     inkscape:current-layer="layer1"
     showgrid="false"
     inkscape:window-width="1366"
     inkscape:window-height="706"
     inkscape:window-x="-8"
     inkscape:window-y="-8"
     inkscape:window-maximized="1" />
  <metadata
     id="metadata6270">
    <rdf:RDF>
      <cc:Work
         rdf:about="">
        <dc:format>image/svg+xml</dc:format>
        <dc:type
           rdf:resource="http://purl.org/dc/dcmitype/StillImage" />
        <dc:title></dc:title>
      </cc:Work>
    </rdf:RDF>
  </metadata>
  <g
     inkscape:label="Layer 1"
     inkscape:groupmode="layer"
     id="layer1"
     transform="translate(0,-742.36218)">
    <path
       inkscape:connector-curvature="0"
       d="m 106.14808,777.3103 c -21.665986,0 -43.807781,9.9966 -57.796035,26.08834 -7.797958,8.97992 -16.51244,23.7695 -13.752853,43.21682 7.011655,49.60243 51.024802,136.4467 70.492148,165.51004 19.94314,-29.24859 65.23842,-116.43349 72.65572,-165.64527 2.88481,-19.15683 -5.6694,-33.81619 -13.35217,-42.75104 C 150.37658,787.4321 128.0595,777.3103 106.14808,777.3103 m -1.06176,271.7115 c -7.081756,0 -18.946476,0 -57.05981,-77.9495 C 36.958116,948.39456 10.544223,891.29972 4.829726,850.82246 1.444101,826.90271 8.841388,803.05808 25.659339,783.68588 c 19.812924,-22.81792 49.907943,-36.44556 80.488741,-36.44556 30.87632,0 61.17667,13.78291 81.03968,36.87628 16.66271,19.36216 23.86465,43.10163 20.28872,66.85109 -6.10515,40.47725 -33.34542,97.68228 -44.7694,120.40511 -39.07493,77.649 -50.68423,77.649 -57.62076,77.649"
       style="fill:#ff0000;fill-opacity:1;fill-rule:nonzero;stroke:none"
       id="path5594" />
    <path
       inkscape:connector-curvature="0"
       d="m 144.33655,849.91094 c 0,21.34546 -17.29875,38.64922 -38.63921,38.64922 -21.355486,0 -38.654228,-17.30376 -38.654228,-38.64922 0,-21.34547 17.298742,-38.64923 38.654228,-38.64923 21.34046,0 38.63921,17.30376 38.63921,38.64923"
       style="fill:#ff0000;fill-opacity:1;fill-rule:nonzero;stroke:none"
       id="path5602" />
  </g>
</svg>
