<?xml version="1.0" encoding="UTF-8" standalone="no"?>
<!-- Created with Inkscape (http://www.inkscape.org/) -->

<svg
   xmlns:dc="http://purl.org/dc/elements/1.1/"
   xmlns:cc="http://creativecommons.org/ns#"
   xmlns:rdf="http://www.w3.org/1999/02/22-rdf-syntax-ns#"
   xmlns:svg="http://www.w3.org/2000/svg"
   xmlns="http://www.w3.org/2000/svg"
   xmlns:sodipodi="http://sodipodi.sourceforge.net/DTD/sodipodi-0.dtd"
   xmlns:inkscape="http://www.inkscape.org/namespaces/inkscape"
   width="368"
   height="37"
   id="svg3897"
   version="1.1"
   inkscape:version="0.48.4 r9939"
   sodipodi:docname="logo7.svg">
  <defs
     id="defs3899" />
  <sodipodi:namedview
     id="base"
     pagecolor="#ffffff"
     bordercolor="#666666"
     borderopacity="1.0"
     inkscape:pageopacity="0.0"
     inkscape:pageshadow="2"
     inkscape:zoom="2.8"
     inkscape:cx="166.51594"
     inkscape:cy="43.807951"
     inkscape:document-units="px"
     inkscape:current-layer="layer1"
     showgrid="false"
     inkscape:window-width="1366"
     inkscape:window-height="706"
     inkscape:window-x="-8"
     inkscape:window-y="-8"
     inkscape:window-maximized="1"
     showguides="true"
     inkscape:guide-bbox="true" />
  <metadata
     id="metadata3902">
    <rdf:RDF>
      <cc:Work
         rdf:about="">
        <dc:format>image/svg+xml</dc:format>
        <dc:type
           rdf:resource="http://purl.org/dc/dcmitype/StillImage" />
        <dc:title></dc:title>
      </cc:Work>
    </rdf:RDF>
  </metadata>
  <g
     inkscape:label="Layer 1"
     inkscape:groupmode="layer"
     id="layer1"
     transform="translate(0,-1015.3622)">
    <g
       id="g3997"
       transform="matrix(0.33306892,0,0,0.33306892,46.370099,699.60699)">
      <g
         transform="translate(20.801927,885.66499)"
         style="font-size:72px;font-style:normal;font-weight:normal;line-height:154.00000811%;letter-spacing:0px;word-spacing:0px;fill:#008000;fill-opacity:1;stroke:none;font-family:Sans"
         id="flowRoot4270">
        <path
           d="m -137.66016,117.19034 c 2.07876,4e-5 4.80336,0.51469 8.17383,1.54394 0.40362,0.12114 0.72654,0.18168 0.96875,0.18164 0.2018,4e-5 0.80726,-0.1816 1.81641,-0.54492 0.32288,-0.12105 0.66598,-0.1816 1.02929,-0.18164 1.35219,4e-5 2.78008,1.0697 4.2837,3.20899 1.50354,2.13936 2.25533,4.17776 2.25537,6.11523 -4e-5,1.13024 -0.33809,2.08385 -1.01416,2.86084 -0.67615,0.77705 -1.49857,1.16556 -2.46729,1.16553 -0.80732,3e-5 -1.46325,-0.16143 -1.96777,-0.48438 -0.50459,-0.32289 -1.61462,-1.28154 -3.33008,-2.87597 -2.4219,-2.26039 -4.80341,-3.39059 -7.14453,-3.39063 -1.13023,4e-5 -2.03339,0.2725 -2.70947,0.81738 -0.67613,0.54496 -1.01418,1.26143 -1.01416,2.14942 -2e-5,1.75589 1.54392,3.07783 4.63183,3.96582 4.17771,1.23114 6.85186,2.12926 8.02246,2.69433 5.14645,2.50263 7.71969,6.1859 7.71973,11.04981 -4e-5,4.29884 -1.7559,7.81055 -5.26758,10.53516 -3.59248,2.78515 -8.28485,4.17773 -14.07715,4.17773 -2.58335,0 -5.30795,-0.30778 -8.17382,-0.92334 -2.8659,-0.61556 -4.93458,-1.33708 -6.20606,-2.16455 -0.96875,-0.64583 -1.84164,-2.05354 -2.61865,-4.22315 -0.77702,-2.16958 -1.16553,-4.28368 -1.16553,-6.34228 0,-0.98892 0.20182,-1.73566 0.60547,-2.24023 0.50455,-0.64582 1.1403,-0.96874 1.90723,-0.96875 0.76692,1e-5 1.50357,0.39357 2.20996,1.18066 0.42382,0.44402 1.42284,1.86687 2.99707,4.26855 0.74673,1.13022 1.93244,2.0687 3.55713,2.81543 1.62466,0.74676 3.30483,1.12013 5.04052,1.12012 1.49347,1e-5 2.70441,-0.2775 3.63282,-0.83252 0.92836,-0.555 1.39255,-1.26643 1.39257,-2.13428 -2e-5,-0.80728 -0.3633,-1.50357 -1.08984,-2.08886 -0.72658,-0.58528 -1.90725,-1.1302 -3.54199,-1.63477 -2.88608,-0.90819 -5.08595,-1.74071 -6.59961,-2.49756 -1.51368,-0.75682 -2.92644,-1.71043 -4.23828,-2.86084 -3.18881,-2.8255 -4.78321,-6.03448 -4.78321,-9.62695 0,-1.77601 0.41374,-3.50664 1.24122,-5.1919 0.82747,-1.68518 1.99804,-3.14335 3.51171,-4.37451 3.39062,-2.84566 7.52798,-4.26851 12.41211,-4.26855 z"
           style="font-size:62px;letter-spacing:5px;font-family:Cooper Black;-inkscape-font-specification:Cooper Black"
           id="path4009"
           inkscape:connector-curvature="0" />
        <path
           d="m -22.571289,128.78507 -0.87793,-2.11915 c -0.544948,-1.23108 -1.221054,-2.04846 -2.02832,-2.45214 -1.453149,-0.7669 -2.179711,-1.73564 -2.179688,-2.90625 -2.3e-5,-2.5833 3.874974,-3.87496 11.625,-3.875 3.874962,4e-5 6.8215735,0.31286 8.8398442,0.93847 0.6861537,0.22205 1.2361206,0.57524 1.6499023,1.05957 0.4136914,0.48442 0.6205597,1.01925 0.6206055,1.6045 -4.58e-5,0.50459 -0.095912,0.88805 -0.2875977,1.15039 -0.191777,0.2624 -0.7215616,0.77705 -1.5893554,1.54394 -0.5046007,0.42386 -0.7568791,0.86787 -0.756836,1.33203 -4.31e-5,0.70642 0.3834201,1.87699 1.1503907,3.51172 l 1.7255859,3.69336 c 0.7870626,1.67516 1.3471206,2.73977 1.6801758,3.19385 0.3329598,0.45412 0.7113774,0.68117 1.1352539,0.68115 0.4641434,2e-5 0.8627433,-0.26235 1.19580077,-0.78711 0.33295745,-0.52471 0.76183072,-1.55401 1.28662109,-3.08789 l 1.45312504,-4.23828 c 0.4035926,-1.21091 0.6054153,-2.11911 0.6054687,-2.72461 -5.34e-5,-0.80726 -0.4238811,-1.34209 -1.2714844,-1.60449 -1.69536287,-0.54489 -2.5430183,-1.51364 -2.5429687,-2.90625 -4.96e-5,-1.2109 0.65587425,-2.07874 1.96777343,-2.60352 1.31179607,-0.5247 3.47129917,-0.78707 6.47851557,-0.78711 1.9576224,4e-5 3.4813843,0.22205 4.5712893,0.66602 1.513608,0.60551 2.270443,1.57426 2.270508,2.90625 -6.5e-5,0.58532 -0.136296,1.08988 -0.408692,1.51367 -0.272525,0.42386 -0.822492,0.98897 -1.649902,1.69531 -0.544984,0.46423 -0.963766,0.9587 -1.256348,1.4834 -0.292704,0.52477 -0.74176,1.60453 -1.3471677,3.23926 l -5.2978516,14.07715 c -2.6439325,6.55925 -4.23833191,10.46452 -4.78320314,11.71582 -0.54497146,1.2513 -1.11007506,2.37142 -1.69531246,3.36035 -0.4440584,0.72656 -0.9385241,1.23616 -1.4833985,1.52881 -0.5449682,0.29264 -1.27153,0.43896 -2.1796875,0.43896 -1.210981,0 -2.1847756,-0.26237 -2.9213867,-0.78711 -0.7366947,-0.52474 -1.3572994,-1.39257 -1.8618164,-2.60351 l -5.994141,-14.22852 c -0.32295,-0.78709 -0.565137,-1.28156 -0.726562,-1.4834 -0.161492,-0.2018 -0.383497,-0.30271 -0.666016,-0.30273 -0.42386,2e-5 -0.787141,0.2523 -1.089843,0.75684 -0.302766,0.50457 -0.877961,1.80633 -1.725586,3.90527 l -4.117188,10.23242 c -0.766952,1.85677 -1.498559,3.08285 -2.194824,3.67822 -0.696312,0.59538 -1.750836,0.89307 -3.163574,0.89307 -1.271504,0 -2.275572,-0.30274 -3.012207,-0.9082 -0.736671,-0.60547 -1.407731,-1.67513 -2.013184,-3.20899 l -11.140625,-28.4873 c -0.464196,-1.17054 -0.782067,-1.86179 -0.953613,-2.07373 -0.171553,-0.21188 -0.711429,-0.56003 -1.619629,-1.04444 -1.029298,-0.5247 -1.543945,-1.41272 -1.543945,-2.66406 0,-2.84566 3.531897,-4.26851 10.595703,-4.26855 3.612616,4e-5 6.22622,0.25232 7.84082,0.75683 1.554016,0.5046 2.331034,1.50362 2.331055,2.99707 -2.1e-5,0.46423 -0.04039,0.80229 -0.121094,1.01416 -0.08075,0.21195 -0.373393,0.68119 -0.87793,1.40772 -0.242207,0.3835 -0.3633,0.85778 -0.363281,1.42285 -1.9e-5,1.00915 0.676087,3.1081 2.02832,6.29687 l 1.241211,2.90625 c 0.524717,1.21097 0.872861,1.94257 1.044434,2.19483 0.171525,0.2523 0.418758,0.37844 0.741699,0.37842 0.787084,2e-5 1.594375,-1.1201 2.421875,-3.36036 l 1.241211,-3.45117 c 0.100883,-0.24216 0.151339,-0.43389 0.151367,-0.57519 -2.8e-5,-0.16143 -0.05048,-0.37334 -0.151367,-0.63574 z"
           style="font-size:62px;letter-spacing:5px;font-family:Cooper Black;-inkscape-font-specification:Cooper Black"
           id="path4011"
           inkscape:connector-curvature="0" />
        <path
           d="m 32.894531,117.40225 c 2.300765,4e-5 4.470359,0.20187 6.508789,0.60547 2.744769,0.54496 4.117163,1.70544 4.117188,3.48145 -2.5e-5,0.58532 -0.136255,1.02428 -0.408692,1.31689 -0.272485,0.29268 -0.963727,0.72155 -2.07373,1.28662 -0.928407,0.46423 -1.538921,1.48343 -1.831543,3.05762 -0.292663,1.57425 -0.438985,4.64195 -0.438965,9.20312 -2e-5,7.70966 0.191712,12.48276 0.575195,14.31934 0.141256,0.58529 0.358215,1.03435 0.650879,1.34717 0.292622,0.31283 0.802224,0.65088 1.528809,1.01416 1.332007,0.60547 1.998022,1.4834 1.998047,2.63379 -2.5e-5,1.61458 -1.231144,2.72461 -3.69336,3.33008 -2.66408,0.64583 -5.923517,0.96875 -9.77832,0.96875 -6.579432,0 -9.869142,-1.25131 -9.869141,-3.75391 -1e-6,-0.9082 0.645832,-1.75585 1.9375,-2.54297 0.988928,-0.60546 1.574214,-1.43293 1.75586,-2.48242 0.383458,-2.30077 0.575189,-7.18488 0.575195,-14.65234 -6e-6,-5.16664 -0.262375,-8.47654 -0.787109,-9.92969 -0.282557,-0.82744 -0.958663,-1.57419 -2.028321,-2.24024 -0.827476,-0.54488 -1.382488,-0.99898 -1.665039,-1.3623 -0.282553,-0.36325 -0.423829,-0.82744 -0.423828,-1.39258 -1e-6,-0.8678 0.418782,-1.55904 1.256348,-2.07373 0.837562,-0.51461 2.315914,-0.97375 4.435059,-1.37744 2.522777,-0.50452 5.075834,-0.7568 7.659179,-0.75684 z"
           style="font-size:62px;letter-spacing:5px;font-family:Cooper Black;-inkscape-font-specification:Cooper Black"
           id="path4013"
           inkscape:connector-curvature="0" />
        <path
           d="m 67.259766,119.49112 15.076171,13.19922 c 1.412727,1.23114 2.431931,1.8467 3.057618,1.84668 1.049442,2e-5 1.574181,-1.12009 1.574218,-3.36035 -3.7e-5,-2.54294 -0.151404,-4.27862 -0.454101,-5.20703 -0.302771,-0.92836 -0.938513,-1.62464 -1.907227,-2.08887 -0.787143,-0.38343 -1.342156,-0.79212 -1.665039,-1.22608 -0.32295,-0.43388 -0.484408,-0.99394 -0.484375,-1.68017 -3.3e-5,-1.69527 1.160448,-2.78512 3.481446,-3.26953 0.94853,-0.20178 2.603476,-0.3027 4.964843,-0.30274 3.047482,4e-5 5.156529,0.18169 6.327149,0.54492 1.856721,0.56515 2.785101,1.63481 2.785161,3.20899 -6e-5,1.31188 -0.756891,2.30082 -2.270513,2.9668 -0.605516,0.2624 -1.019253,0.4945 -1.241211,0.69628 -0.222052,0.20186 -0.413783,0.5046 -0.575195,0.90821 -0.544968,1.33206 -0.82752,3.85485 -0.847656,7.56836 l 0,9.86914 c -4.6e-5,1.51368 0.01004,3.58237 0.03027,6.20605 0.02014,3.55209 -0.191777,6.11524 -0.635742,7.68946 -0.544966,1.95768 -1.533898,2.93652 -2.966797,2.93652 -0.625692,0 -1.165568,-0.13119 -1.619629,-0.39356 -0.454141,-0.26237 -1.205931,-0.86783 -2.255371,-1.8164 l -17.952148,-16.0752 c -1.251321,-1.13019 -2.290708,-1.69529 -3.118164,-1.69531 -1.231136,2e-5 -1.846695,1.70542 -1.84668,5.11621 -1.5e-5,2.80535 0.156397,4.72267 0.469238,5.75195 0.31281,1.02931 0.953597,1.78614 1.922363,2.27051 1.352195,0.66602 2.028301,1.53386 2.028321,2.60352 -2e-5,2.80534 -3.01727,4.20801 -9.051758,4.20801 -2.724617,0 -4.83871,-0.35824 -6.342285,-1.07471 -1.503584,-0.71647 -2.255373,-1.73063 -2.255371,-3.04248 -2e-6,-0.6862 0.141273,-1.20084 0.423828,-1.54395 0.282549,-0.34309 0.918291,-0.80728 1.907226,-1.39258 0.948563,-0.56509 1.523757,-1.56411 1.725586,-2.99707 0.343093,-2.6035 0.514642,-6.34731 0.514649,-11.23144 -7e-6,-5.20701 -0.302741,-9.00127 -0.908203,-11.38281 -0.222011,-0.86781 -0.504563,-1.51364 -0.847657,-1.9375 -0.343103,-0.4238 -0.908207,-0.82744 -1.695312,-1.21094 -0.908206,-0.44398 -1.538902,-0.87789 -1.89209,-1.30176 -0.353191,-0.42379 -0.529786,-0.93844 -0.529785,-1.54394 -10e-7,-1.93746 1.665036,-3.15849 4.995117,-3.66309 1.130201,-0.16142 3.108064,-0.24215 5.933594,-0.24219 1.61457,4e-5 2.790187,0.12618 3.526855,0.37842 0.736638,0.25232 1.609521,0.82247 2.618653,1.71045 z"
           style="font-size:62px;letter-spacing:5px;font-family:Cooper Black;-inkscape-font-specification:Cooper Black"
           id="path4015"
           inkscape:connector-curvature="0" />
        <path
           d="m 130.35449,117.19034 c 2.64386,4e-5 5.13637,0.37341 7.47754,1.12012 1.04945,0.34314 1.76592,0.51468 2.14942,0.51464 0.40361,4e-5 1.25126,-0.23205 2.54296,-0.69628 0.4238,-0.14124 0.85771,-0.21188 1.30176,-0.21192 1.13017,4e-5 2.20992,0.66606 3.23926,1.99805 1.6549,2.13936 2.48238,4.4805 2.48242,7.02344 -4e-5,1.7357 -0.43901,3.13837 -1.31689,4.208 -0.87797,1.06969 -2.03341,1.60452 -3.46631,1.6045 -1.17061,2e-5 -2.321,-0.42381 -3.45117,-1.27149 -0.34314,-0.26234 -1.1807,-1.21091 -2.5127,-2.8457 -2.22008,-2.72458 -4.77314,-4.08688 -7.65918,-4.08692 -2.62372,4e-5 -4.70754,0.9587 -6.25146,2.87598 -1.54397,1.91735 -2.31594,4.50068 -2.31592,7.75 -2e-5,4.82359 1.2311,8.93068 3.69336,12.32129 0.92836,1.23113 2.03839,2.21502 3.33008,2.95166 1.29164,0.73666 2.57321,1.10499 3.84472,1.10498 1.04945,1e-5 1.91225,-0.34814 2.58838,-1.04443 0.67608,-0.69628 1.01413,-1.58935 1.01416,-2.6792 -3e-5,-0.96874 -0.28258,-1.65494 -0.84765,-2.0586 -0.22204,-0.16144 -0.42891,-0.25731 -0.62061,-0.28759 -0.19176,-0.0303 -0.772,-0.0454 -1.74072,-0.0454 -0.86787,1e-5 -1.58938,-0.2775 -2.16455,-0.83252 -0.57522,-0.555 -0.86282,-1.25634 -0.8628,-2.10401 -2e-5,-1.67511 1.11,-2.86586 3.33008,-3.57226 2.44203,-0.76691 5.25746,-1.15037 8.44629,-1.15039 3.41077,2e-5 6.27665,0.35321 8.59766,1.05957 2.19982,0.68621 3.29975,1.92742 3.2998,3.72363 -5e-5,0.72658 -0.25233,1.35727 -0.75683,1.89209 -0.50461,0.53484 -1.16053,0.85271 -1.96778,0.95361 -0.70642,0.10093 -1.16557,0.25734 -1.37744,0.46924 -0.21196,0.21193 -0.42892,0.73162 -0.65088,1.55908 -0.86788,3.209 -2.56319,5.89324 -5.08594,8.05274 -1.73571,1.47331 -3.82962,2.6237 -6.28173,3.45117 -2.45218,0.82747 -5.03047,1.24121 -7.73487,1.24121 -4.41994,0 -8.47658,-1.01921 -12.16992,-3.05762 -3.79428,-2.07877 -6.68034,-4.98502 -8.6582,-8.71875 -1.65495,-3.10806 -2.48243,-6.4684 -2.48242,-10.08105 -1e-5,-3.65297 0.98893,-7.12432 2.96679,-10.41406 2.09895,-3.53187 5.03548,-6.25648 8.80957,-8.17383 3.2897,-1.69527 7.0436,-2.54293 11.26172,-2.54297 z"
           style="font-size:62px;letter-spacing:5px;font-family:Cooper Black;-inkscape-font-specification:Cooper Black"
           id="path4017"
           inkscape:connector-curvature="0" />
        <path
           d="m 194.78613,118.03799 15.9541,0 c 1.71547,-0.0605 3.27959,-0.2926 4.69239,-0.69628 0.60543,-0.16142 1.14026,-0.24215 1.60449,-0.24219 1.63473,4e-5 3.22408,1.21098 4.76807,3.63281 1.5439,2.42191 2.31587,4.91442 2.31591,7.47754 -4e-5,1.75589 -0.53487,3.03746 -1.60449,3.84473 -0.80733,0.60549 -1.77608,0.90823 -2.90625,0.9082 -1.0697,3e-5 -1.99808,-0.29766 -2.78515,-0.89307 -0.78715,-0.59535 -1.56417,-1.57923 -2.33106,-2.95166 -0.66605,-1.25127 -1.19079,-2.06865 -1.57422,-2.45215 -0.38349,-0.38343 -0.84769,-0.57516 -1.39258,-0.57519 -0.74677,3e-5 -1.2816,0.31286 -1.60449,0.93848 -0.32294,0.62568 -0.4844,1.65497 -0.48437,3.08789 l 0,16.95312 c -3e-5,1.73569 0.18161,2.99708 0.54492,3.78418 0.36325,0.78712 1.04945,1.39259 2.05859,1.81641 1.08981,0.4642 1.83151,0.90316 2.2251,1.31689 0.39352,0.41374 0.5903,0.98389 0.59033,1.71045 -3e-5,1.45313 -0.98392,2.53288 -2.95166,3.23926 -1.9678,0.70638 -4.9901,1.05957 -9.06689,1.05957 -5.00523,0 -8.71877,-0.41374 -11.14063,-1.24121 -2.03842,-0.6862 -3.05762,-1.79622 -3.05762,-3.33008 0,-0.82747 0.36328,-1.4733 1.08985,-1.9375 0.18163,-0.10091 0.8981,-0.34309 2.14941,-0.72656 0.76692,-0.222 1.2967,-0.64583 1.58936,-1.27149 0.29263,-0.62564 0.52977,-1.82648 0.71142,-3.60254 0.16145,-1.5742 0.31282,-4.12221 0.45411,-7.64404 0.14126,-3.52179 0.2119,-6.57435 0.21191,-9.15771 -1e-5,-1.81638 -0.14129,-3.10805 -0.42383,-3.875 -0.28256,-0.7669 -0.74676,-1.15036 -1.39258,-1.15039 -0.78712,3e-5 -1.55404,0.56513 -2.30078,1.69531 -1.35222,2.05862 -2.46225,3.42092 -3.33008,4.08691 -1.0293,0.78714 -2.02832,1.18069 -2.99707,1.18067 -1.08984,2e-5 -1.98795,-0.40867 -2.69433,-1.22608 -0.70638,-0.81735 -1.05957,-1.86178 -1.05957,-3.1333 0,-1.25127 0.28255,-2.62871 0.84765,-4.13232 0.56511,-1.50355 1.32194,-2.89108 2.27051,-4.1626 1.53385,-2.05855 3.04752,-3.08785 4.54102,-3.08789 0.40363,4e-5 0.86783,0.0606 1.39258,0.18164 1.08983,0.22205 1.98289,0.37341 2.67919,0.4541 0.69628,0.0808 1.49853,0.12114 2.40674,0.12109 z"
           style="font-size:62px;letter-spacing:5px;font-family:Cooper Black;-inkscape-font-specification:Cooper Black"
           id="path4019"
           inkscape:connector-curvature="0" />
        <path
           d="m 243.34961,117.37198 c 6.29685,4e-5 9.44529,1.3018 9.44531,3.90527 -2e-5,0.70642 -0.16148,1.28161 -0.48437,1.72559 -0.32294,0.44404 -0.9385,0.93851 -1.84668,1.4834 -0.78713,0.48441 -1.28664,1.12015 -1.49854,1.90722 -0.21193,0.78715 -0.31789,2.38154 -0.31787,4.78321 -2e-5,1.41278 0.26235,2.28062 0.78711,2.60351 0.30271,0.20185 0.76186,0.32294 1.37744,0.36328 0.61554,0.0404 2.06362,0.0606 4.34424,0.0606 2.07875,3e-5 3.37041,-0.11098 3.875,-0.33301 0.50453,-0.22198 0.75681,-0.77699 0.75684,-1.66504 -3e-5,-2.66403 -0.12113,-4.5208 -0.36329,-5.57031 -0.24221,-1.04944 -0.7165,-1.76591 -1.42285,-2.14941 -0.88805,-0.50452 -1.47333,-0.9334 -1.75586,-1.28662 -0.28258,-0.35316 -0.42385,-0.8224 -0.42382,-1.40772 -3e-5,-0.82743 0.31279,-1.57922 0.93847,-2.25537 0.62562,-0.67607 1.44301,-1.13521 2.45215,-1.37744 2.09893,-0.50452 4.73271,-0.7568 7.90137,-0.75684 3.7135,4e-5 6.45324,0.3381 8.21924,1.01416 1.7659,0.67615 2.64887,1.73067 2.64892,3.16358 -5e-5,1.21097 -0.6257,2.11917 -1.87695,2.72461 -0.78716,0.36331 -1.3018,0.71146 -1.54395,1.04443 -0.24223,0.33304 -0.43396,0.95365 -0.57519,1.86182 -0.0808,0.50459 -0.18169,2.74482 -0.30274,6.7207 -0.12113,3.97593 -0.18168,7.13446 -0.18164,9.47559 -4e-5,4.09701 0.15133,6.70053 0.4541,7.81054 0.16142,0.60548 0.34306,1.00912 0.54493,1.21094 0.20177,0.20183 0.83752,0.60547 1.90722,1.21094 0.76688,0.42383 1.15035,1.06966 1.15039,1.9375 -4e-5,1.53385 -0.91329,2.64892 -2.73974,3.34521 -1.82654,0.69629 -4.78829,1.04444 -8.88526,1.04444 -3.59248,0 -6.24645,-0.35319 -7.96191,-1.05957 -1.55406,-0.64584 -2.33108,-1.64486 -2.33106,-2.99707 -2e-5,-1.15039 0.59536,-2.0485 1.78614,-2.69434 0.58526,-0.32291 0.98386,-0.64583 1.1958,-0.96875 0.21188,-0.32291 0.41875,-0.91829 0.6206,-1.78613 0.36325,-1.69531 0.5449,-3.77408 0.54493,-6.23633 -3e-5,-1.27147 -0.18672,-2.05858 -0.56006,-2.36133 -0.3734,-0.30272 -1.3472,-0.45408 -2.92139,-0.4541 -3.61265,2e-5 -5.91343,0.20184 -6.90234,0.60547 -0.40367,0.16147 -0.65595,0.63576 -0.75684,1.42285 -0.12111,0.96876 -0.18166,2.15952 -0.18164,3.57226 -2e-5,2.3008 0.3229,3.95574 0.96875,4.96485 0.22198,0.32292 0.74672,0.73666 1.57422,1.24121 0.84763,0.48438 1.27146,1.28158 1.27148,2.3916 -2e-5,1.41276 -0.97886,2.49252 -2.93652,3.23926 -1.9577,0.74674 -4.75295,1.12012 -8.38574,1.12012 -3.30991,0 -6.01433,-0.3431 -8.11328,-1.0293 -0.90821,-0.30273 -1.61963,-0.73161 -2.13428,-1.28662 -0.51465,-0.55501 -0.77197,-1.16553 -0.77197,-1.83155 0,-0.66601 0.16145,-1.18065 0.48437,-1.54394 0.32292,-0.36328 1.0293,-0.82747 2.11914,-1.39258 0.5651,-0.28254 0.9637,-0.64582 1.1958,-1.08984 0.23209,-0.444 0.40869,-1.19075 0.52979,-2.24024 0.30273,-2.36131 0.45409,-5.4492 0.4541,-9.26367 -1e-5,-0.70636 -0.0101,-1.54392 -0.0303,-2.51269 -0.0807,-4.84373 -0.1211,-7.6087 -0.1211,-8.29493 0.0202,-1.73564 -0.12614,-2.88099 -0.43896,-3.43603 -0.31283,-0.55498 -1.13526,-1.16549 -2.46729,-1.83154 -0.88802,-0.4238 -1.33203,-1.05954 -1.33203,-1.90723 0,-2.03837 1.97786,-3.45113 5.93359,-4.23828 2.30078,-0.46415 4.6621,-0.69625 7.08399,-0.69629 z"
           style="font-size:62px;letter-spacing:5px;font-family:Cooper Black;-inkscape-font-specification:Cooper Black"
           id="path4021"
           inkscape:connector-curvature="0" />
        <path
           d="m 291.36816,118.03799 15.56055,0 c 3.14841,5e-5 5.44415,-0.0655 6.88721,-0.19677 1.443,-0.13115 2.85071,-0.39856 4.22314,-0.80225 0.4238,-0.12105 0.7568,-0.1816 0.99903,-0.18164 1.04944,4e-5 1.97782,0.56515 2.78515,1.69531 1.33199,1.83663 1.99801,4.05668 1.99805,6.66016 -4e-5,1.31188 -0.27755,2.34622 -0.83252,3.10303 -0.55505,0.75686 -1.31693,1.13528 -2.28565,1.13525 -0.66605,3e-5 -1.18574,-0.1362 -1.55908,-0.40869 -0.3734,-0.27243 -0.87292,-0.88294 -1.49853,-1.83154 -0.88806,-1.35218 -2.01322,-2.25534 -3.37549,-2.70948 -1.36233,-0.45406 -3.59752,-0.68111 -6.70557,-0.68115 -2.32098,4e-5 -3.73374,0.41377 -4.23828,1.24121 -0.26239,0.44405 -0.4188,1.03942 -0.46924,1.78614 -0.0505,0.74677 -0.0757,2.654 -0.0757,5.72167 -2e-5,1.21097 0.2018,1.96276 0.60547,2.25538 0.40362,0.29266 1.46319,0.43898 3.17871,0.43896 0.84763,2e-5 1.46319,-0.17657 1.84668,-0.52978 0.38344,-0.35317 0.62563,-0.98387 0.72656,-1.89209 0.14125,-1.17055 0.28757,-1.97279 0.43897,-2.40674 0.15134,-0.43389 0.42884,-0.81231 0.83252,-1.13526 0.4238,-0.36325 0.91826,-0.54489 1.48339,-0.54492 0.82745,3e-5 1.53383,0.39359 2.11915,1.18067 0.42379,0.58531 0.78203,1.61965 1.0747,3.10302 0.29261,1.48343 0.43894,3.03242 0.43897,4.64698 -3e-5,3.18882 -0.4945,5.80242 -1.4834,7.84082 -0.54495,1.11003 -1.37243,1.66505 -2.48242,1.66504 -0.68623,1e-5 -1.16051,-0.17659 -1.42285,-0.52979 -0.2624,-0.35318 -0.46422,-1.08478 -0.60547,-2.19482 -0.30276,-2.28059 -1.63479,-3.42088 -3.9961,-3.4209 -0.90822,2e-5 -1.52883,0.28761 -1.86181,0.86279 -0.33303,0.57521 -0.49953,1.63983 -0.49952,3.19385 -10e-6,0.94858 0.0656,2.17465 0.19678,3.67822 0.13117,1.50359 0.2674,2.49757 0.40869,2.98193 0.16144,0.60548 0.66095,1.02426 1.49854,1.25635 0.83754,0.2321 2.23516,0.34815 4.19287,0.34815 3.02731,0 5.30791,-0.38851 6.8418,-1.16553 1.53382,-0.77701 2.78512,-2.18472 3.7539,-4.22315 0.56507,-1.17056 1.07467,-1.95766 1.52881,-2.36132 0.45406,-0.40364 1.0444,-0.60546 1.771,-0.60547 0.84761,1e-5 1.54895,0.36834 2.104,1.10498 0.55497,0.73666 0.83248,1.66 0.83252,2.77002 -4e-5,1.21094 -0.31287,2.72461 -0.93848,4.54101 -0.62569,1.81641 -1.39261,3.431 -2.30078,4.84375 -0.46423,0.6862 -0.84769,1.14535 -1.15039,1.37744 -0.30277,0.2321 -0.68623,0.34815 -1.15039,0.34815 -0.3835,0 -0.93851,-0.0606 -1.66504,-0.18164 -1.2917,-0.24219 -3.01728,-0.39356 -5.17676,-0.4541 l -25.67187,0 c -1.0293,0 -1.8265,-0.22705 -2.3916,-0.68116 -0.56511,-0.4541 -0.84766,-1.09488 -0.84766,-1.92236 0,-0.58528 0.12109,-1.00911 0.36328,-1.27148 0.24219,-0.26237 0.7972,-0.59538 1.66504,-0.99903 0.60547,-0.26236 1.05452,-0.58528 1.34717,-0.96875 0.29264,-0.38345 0.51969,-0.94856 0.68115,-1.69531 0.66601,-3.04751 0.99902,-7.15461 0.99903,-12.32129 -1e-5,-7.79033 -0.48438,-12.70472 -1.45313,-14.74316 -0.20183,-0.40361 -0.42383,-0.68616 -0.66601,-0.84766 -0.2422,-0.16142 -0.74675,-0.35315 -1.51368,-0.57519 -1.15039,-0.34307 -1.72558,-1.10999 -1.72558,-2.30078 0,-0.6458 0.19173,-1.22099 0.57519,-1.72559 0.38346,-0.50452 0.88802,-0.83753 1.51367,-0.99902 0.78711,-0.1816 2.31087,-0.27242 4.57129,-0.27247 z"
           style="font-size:62px;letter-spacing:5px;font-family:Cooper Black;-inkscape-font-specification:Cooper Black"
           id="path4023"
           inkscape:connector-curvature="0" />
        <path
           d="m 371.75391,117.19034 c 2.07875,4e-5 4.80336,0.51469 8.17382,1.54394 0.40362,0.12114 0.72654,0.18168 0.96875,0.18164 0.2018,4e-5 0.80727,-0.1816 1.81641,-0.54492 0.32289,-0.12105 0.66599,-0.1816 1.0293,-0.18164 1.35218,4e-5 2.78007,1.0697 4.28369,3.20899 1.50354,2.13936 2.25533,4.17776 2.25537,6.11523 -4e-5,1.13024 -0.33809,2.08385 -1.01416,2.86084 -0.67614,0.77705 -1.49857,1.16556 -2.46729,1.16553 -0.80732,3e-5 -1.46324,-0.16143 -1.96777,-0.48438 -0.50459,-0.32289 -1.61461,-1.28154 -3.33008,-2.87597 -2.4219,-2.26039 -4.80341,-3.39059 -7.14453,-3.39063 -1.13023,4e-5 -2.03338,0.2725 -2.70947,0.81738 -0.67613,0.54496 -1.01418,1.26143 -1.01416,2.14942 -2e-5,1.75589 1.54392,3.07783 4.63183,3.96582 4.17771,1.23114 6.85186,2.12926 8.02247,2.69433 5.14644,2.50263 7.71968,6.1859 7.71972,11.04981 -4e-5,4.29884 -1.75589,7.81055 -5.26758,10.53516 -3.59247,2.78515 -8.28485,4.17773 -14.07714,4.17773 -2.58335,0 -5.30796,-0.30778 -8.17383,-0.92334 -2.8659,-0.61556 -4.93458,-1.33708 -6.20606,-2.16455 -0.96875,-0.64583 -1.84163,-2.05354 -2.61865,-4.22315 -0.77702,-2.16958 -1.16553,-4.28368 -1.16553,-6.34228 0,-0.98892 0.20182,-1.73566 0.60547,-2.24023 0.50456,-0.64582 1.1403,-0.96874 1.90723,-0.96875 0.76692,1e-5 1.50357,0.39357 2.20996,1.18066 0.42382,0.44402 1.42284,1.86687 2.99707,4.26855 0.74674,1.13022 1.93244,2.0687 3.55713,2.81543 1.62466,0.74676 3.30483,1.12013 5.04053,1.12012 1.49347,1e-5 2.7044,-0.2775 3.63281,-0.83252 0.92836,-0.555 1.39255,-1.26643 1.39258,-2.13428 -3e-5,-0.80728 -0.36331,-1.50357 -1.08985,-2.08886 -0.72658,-0.58528 -1.90724,-1.1302 -3.54199,-1.63477 -2.88608,-0.90819 -5.08595,-1.74071 -6.59961,-2.49756 -1.51368,-0.75682 -2.92644,-1.71043 -4.23828,-2.86084 -3.18881,-2.8255 -4.78321,-6.03448 -4.7832,-9.62695 -10e-6,-1.77601 0.41373,-3.50664 1.24121,-5.1919 0.82747,-1.68518 1.99804,-3.14335 3.51172,-4.37451 3.39061,-2.84566 7.52798,-4.26851 12.41211,-4.26855 z"
           style="font-size:62px;letter-spacing:5px;font-family:Cooper Black;-inkscape-font-specification:Cooper Black"
           id="path4025"
           inkscape:connector-curvature="0" />
        <path
           d="m 404.69629,118.03799 15.56055,0 c 3.14841,5e-5 5.44414,-0.0655 6.8872,-0.19677 1.44301,-0.13115 2.85072,-0.39856 4.22315,-0.80225 0.42379,-0.12105 0.7568,-0.1816 0.99902,-0.18164 1.04944,4e-5 1.97783,0.56515 2.78516,1.69531 1.33199,1.83663 1.998,4.05668 1.99804,6.66016 -4e-5,1.31188 -0.27754,2.34622 -0.83252,3.10303 -0.55505,0.75686 -1.31693,1.13528 -2.28564,1.13525 -0.66605,3e-5 -1.18575,-0.1362 -1.55908,-0.40869 -0.37341,-0.27243 -0.87292,-0.88294 -1.49854,-1.83154 -0.88805,-1.35218 -2.01321,-2.25534 -3.37549,-2.70948 -1.36233,-0.45406 -3.59752,-0.68111 -6.70556,-0.68115 -2.32099,4e-5 -3.73375,0.41377 -4.23828,1.24121 -0.26239,0.44405 -0.4188,1.03942 -0.46924,1.78614 -0.0505,0.74677 -0.0757,2.654 -0.0757,5.72167 -10e-6,1.21097 0.20181,1.96276 0.60547,2.25538 0.40363,0.29266 1.4632,0.43898 3.17871,0.43896 0.84764,2e-5 1.4632,-0.17657 1.84668,-0.52978 0.38344,-0.35317 0.62563,-0.98387 0.72657,-1.89209 0.14125,-1.17055 0.28757,-1.97279 0.43896,-2.40674 0.15134,-0.43389 0.42885,-0.81231 0.83252,-1.13526 0.4238,-0.36325 0.91827,-0.54489 1.4834,-0.54492 0.82744,3e-5 1.53382,0.39359 2.11914,1.18067 0.4238,0.58531 0.78203,1.61965 1.07471,3.10302 0.29261,1.48343 0.43893,3.03242 0.43896,4.64698 -3e-5,3.18882 -0.4945,5.80242 -1.4834,7.84082 -0.54495,1.11003 -1.37242,1.66505 -2.48242,1.66504 -0.68622,1e-5 -1.16051,-0.17659 -1.42285,-0.52979 -0.2624,-0.35318 -0.46422,-1.08478 -0.60547,-2.19482 -0.30276,-2.28059 -1.63479,-3.42088 -3.99609,-3.4209 -0.90823,2e-5 -1.52883,0.28761 -1.86182,0.86279 -0.33303,0.57521 -0.49953,1.63983 -0.49951,3.19385 -2e-5,0.94858 0.0656,2.17465 0.19678,3.67822 0.13116,1.50359 0.26739,2.49757 0.40869,2.98193 0.16144,0.60548 0.66095,1.02426 1.49853,1.25635 0.83755,0.2321 2.23517,0.34815 4.19287,0.34815 3.02732,0 5.30792,-0.38851 6.8418,-1.16553 1.53382,-0.77701 2.78512,-2.18472 3.75391,-4.22315 0.56507,-1.17056 1.07467,-1.95766 1.52881,-2.36132 0.45406,-0.40364 1.04439,-0.60546 1.77099,-0.60547 0.84762,1e-5 1.54895,0.36834 2.10401,1.10498 0.55497,0.73666 0.83247,1.66 0.83252,2.77002 -5e-5,1.21094 -0.31287,2.72461 -0.93848,4.54101 -0.62569,1.81641 -1.39262,3.431 -2.30078,4.84375 -0.46423,0.6862 -0.8477,1.14535 -1.15039,1.37744 -0.30277,0.2321 -0.68624,0.34815 -1.15039,0.34815 -0.3835,0 -0.93852,-0.0606 -1.66504,-0.18164 -1.2917,-0.24219 -3.01729,-0.39356 -5.17676,-0.4541 l -25.67188,0 c -1.0293,0 -1.82649,-0.22705 -2.3916,-0.68116 -0.5651,-0.4541 -0.84765,-1.09488 -0.84765,-1.92236 0,-0.58528 0.12109,-1.00911 0.36328,-1.27148 0.24218,-0.26237 0.7972,-0.59538 1.66504,-0.99903 0.60546,-0.26236 1.05452,-0.58528 1.34717,-0.96875 0.29263,-0.38345 0.51968,-0.94856 0.68115,-1.69531 0.66601,-3.04751 0.99902,-7.15461 0.99902,-12.32129 0,-7.79033 -0.48438,-12.70472 -1.45312,-14.74316 -0.20183,-0.40361 -0.42384,-0.68616 -0.66602,-0.84766 -0.24219,-0.16142 -0.74675,-0.35315 -1.51367,-0.57519 -1.15039,-0.34307 -1.72559,-1.10999 -1.72559,-2.30078 0,-0.6458 0.19173,-1.22099 0.5752,-1.72559 0.38346,-0.50452 0.88802,-0.83753 1.51367,-0.99902 0.78711,-0.1816 2.31087,-0.27242 4.57129,-0.27247 z"
           style="font-size:62px;letter-spacing:5px;font-family:Cooper Black;-inkscape-font-specification:Cooper Black"
           id="path4027"
           inkscape:connector-curvature="0" />
        <path
           d="m 452.56348,118.03799 15.56054,0 c 3.14841,5e-5 5.44415,-0.0655 6.88721,-0.19677 1.443,-0.13115 2.85072,-0.39856 4.22314,-0.80225 0.4238,-0.12105 0.75681,-0.1816 0.99903,-0.18164 1.04944,4e-5 1.97783,0.56515 2.78515,1.69531 1.332,1.83663 1.99801,4.05668 1.99805,6.66016 -4e-5,1.31188 -0.27754,2.34622 -0.83252,3.10303 -0.55505,0.75686 -1.31693,1.13528 -2.28564,1.13525 -0.66605,3e-5 -1.18575,-0.1362 -1.55908,-0.40869 -0.37341,-0.27243 -0.87292,-0.88294 -1.49854,-1.83154 -0.88805,-1.35218 -2.01322,-2.25534 -3.37549,-2.70948 -1.36233,-0.45406 -3.59752,-0.68111 -6.70556,-0.68115 -2.32099,4e-5 -3.73375,0.41377 -4.23829,1.24121 -0.26238,0.44405 -0.4188,1.03942 -0.46923,1.78614 -0.0505,0.74677 -0.0757,2.654 -0.0757,5.72167 -2e-5,1.21097 0.20181,1.96276 0.60547,2.25538 0.40363,0.29266 1.4632,0.43898 3.17871,0.43896 0.84763,2e-5 1.46319,-0.17657 1.84668,-0.52978 0.38344,-0.35317 0.62563,-0.98387 0.72656,-1.89209 0.14126,-1.17055 0.28758,-1.97279 0.43897,-2.40674 0.15134,-0.43389 0.42885,-0.81231 0.83252,-1.13526 0.4238,-0.36325 0.91827,-0.54489 1.4834,-0.54492 0.82744,3e-5 1.53382,0.39359 2.11914,1.18067 0.4238,0.58531 0.78203,1.61965 1.0747,3.10302 0.29262,1.48343 0.43894,3.03242 0.43897,4.64698 -3e-5,3.18882 -0.4945,5.80242 -1.4834,7.84082 -0.54495,1.11003 -1.37242,1.66505 -2.48242,1.66504 -0.68623,1e-5 -1.16051,-0.17659 -1.42285,-0.52979 -0.2624,-0.35318 -0.46422,-1.08478 -0.60547,-2.19482 -0.30276,-2.28059 -1.63479,-3.42088 -3.99609,-3.4209 -0.90823,2e-5 -1.52883,0.28761 -1.86182,0.86279 -0.33303,0.57521 -0.49953,1.63983 -0.49951,3.19385 -2e-5,0.94858 0.0656,2.17465 0.19677,3.67822 0.13117,1.50359 0.2674,2.49757 0.4087,2.98193 0.16143,0.60548 0.66095,1.02426 1.49853,1.25635 0.83754,0.2321 2.23517,0.34815 4.19287,0.34815 3.02732,0 5.30791,-0.38851 6.8418,-1.16553 1.53382,-0.77701 2.78512,-2.18472 3.75391,-4.22315 0.56506,-1.17056 1.07467,-1.95766 1.5288,-2.36132 0.45407,-0.40364 1.0444,-0.60546 1.771,-0.60547 0.84762,1e-5 1.54895,0.36834 2.104,1.10498 0.55497,0.73666 0.83248,1.66 0.83252,2.77002 -4e-5,1.21094 -0.31286,2.72461 -0.93847,4.54101 -0.6257,1.81641 -1.39262,3.431 -2.30078,4.84375 -0.46424,0.6862 -0.8477,1.14535 -1.1504,1.37744 -0.30277,0.2321 -0.68623,0.34815 -1.15039,0.34815 -0.3835,0 -0.93851,-0.0606 -1.66503,-0.18164 -1.29171,-0.24219 -3.01729,-0.39356 -5.17676,-0.4541 l -25.67188,0 c -1.0293,0 -1.8265,-0.22705 -2.3916,-0.68116 -0.5651,-0.4541 -0.84766,-1.09488 -0.84766,-1.92236 0,-0.58528 0.1211,-1.00911 0.36329,-1.27148 0.24218,-0.26237 0.79719,-0.59538 1.66503,-0.99903 0.60547,-0.26236 1.05453,-0.58528 1.34717,-0.96875 0.29264,-0.38345 0.51969,-0.94856 0.68116,-1.69531 0.66601,-3.04751 0.99901,-7.15461 0.99902,-12.32129 -10e-6,-7.79033 -0.48438,-12.70472 -1.45313,-14.74316 -0.20182,-0.40361 -0.42383,-0.68616 -0.66601,-0.84766 -0.24219,-0.16142 -0.74675,-0.35315 -1.51367,-0.57519 -1.1504,-0.34307 -1.72559,-1.10999 -1.72559,-2.30078 0,-0.6458 0.19173,-1.22099 0.5752,-1.72559 0.38346,-0.50452 0.88801,-0.83753 1.51367,-0.99902 0.7871,-0.1816 2.31086,-0.27242 4.57129,-0.27247 z"
           style="font-size:62px;letter-spacing:5px;font-family:Cooper Black;-inkscape-font-specification:Cooper Black"
           id="path4029"
           inkscape:connector-curvature="0" />
        <path
           d="m 506.84863,159.36124 -2.17968,0 c -1.2715,0 -2.69435,0.0605 -4.26856,0.18164 -0.98894,0.0807 -1.67514,0.12109 -2.05859,0.12109 -1.35222,0 -2.45215,-0.31282 -3.29981,-0.93848 -0.84766,-0.62564 -1.27148,-1.44303 -1.27148,-2.45214 0,-0.70638 0.18668,-1.25635 0.56006,-1.64991 0.37337,-0.39355 0.98388,-0.71142 1.83154,-0.95361 0.80729,-0.20182 1.35221,-0.52978 1.63476,-0.98389 0.28255,-0.45409 0.50456,-1.33706 0.66602,-2.64892 0.16145,-1.51366 0.30777,-4.46027 0.43897,-8.83985 0.13117,-4.37953 0.19677,-8.72881 0.19677,-13.04785 0,-1.69528 -0.13119,-2.82548 -0.39355,-3.39062 -0.26238,-0.56507 -0.87794,-1.01917 -1.84668,-1.36231 -1.39258,-0.5247 -2.08887,-1.42281 -2.08887,-2.69433 0,-0.9889 0.47933,-1.76087 1.43799,-2.31592 0.95865,-0.55497 2.29573,-0.83248 4.01123,-0.83252 0.5651,4e-5 1.23111,0.0101 1.99805,0.0303 1.6953,0.0606 2.92642,0.0909 3.69336,0.0908 2.88605,5e-5 6.14548,-0.0908 9.77832,-0.27246 0.7669,-0.0403 1.72556,-0.0605 2.87597,-0.0605 4.62172,4e-5 8.27471,0.52478 10.95899,1.57421 3.99605,1.57426 7.00321,4.21814 9.02148,7.93165 1.79618,3.26956 2.69429,7.16473 2.69434,11.68554 -5e-5,2.28062 -0.33306,4.56626 -0.99903,6.85694 -0.66606,2.2907 -1.56417,4.27361 -2.69433,5.94873 -2.34119,3.39063 -5.57035,5.77213 -9.6875,7.14453 -2.42191,0.80729 -5.00524,1.21093 -7.75,1.21093 l -3.66309,-0.12109 -3.14844,-0.0908 c -2.44207,-0.0807 -4.59148,-0.12109 -6.44824,-0.12109 z m 6.35742,-32.81641 0,23.43164 c -2e-5,1.27149 0.27245,2.17465 0.81739,2.70947 0.5449,0.53484 1.4531,0.80226 2.72461,0.80225 5.8932,1e-5 8.83981,-4.48046 8.83984,-13.44141 -3e-5,-4.94463 -0.68623,-8.77926 -2.05859,-11.5039 -1.5137,-3.00713 -4.07685,-4.51071 -7.68946,-4.51074 -0.96877,3e-5 -1.64992,0.19176 -2.04345,0.57519 -0.39358,0.3835 -0.59036,1.02933 -0.59034,1.9375 z"
           style="font-size:62px;letter-spacing:5px;font-family:Cooper Black;-inkscape-font-specification:Cooper Black"
           id="path4031"
           inkscape:connector-curvature="0" />
        <path
           d="m 599.4043,146.82803 -3.63282,8.14356 c -0.62567,1.3724 -1.13023,2.29574 -1.51367,2.77002 -0.38349,0.47428 -0.80731,0.71142 -1.27148,0.71142 -0.44404,0 -0.83759,-0.19173 -1.18067,-0.57519 -0.22202,-0.24219 -0.73163,-1.13021 -1.5288,-2.66406 -0.79723,-1.53385 -1.4582,-2.89616 -1.98291,-4.08692 l -3.9961,-8.99121 c -0.54494,-1.25128 -1.12013,-1.87693 -1.72558,-1.87695 -0.64585,2e-5 -0.99904,0.53485 -1.05957,1.60449 -0.14129,2.38153 -0.21193,4.58139 -0.21192,6.59961 -10e-6,2.09897 0.1009,3.52182 0.30274,4.26855 0.14126,0.44402 0.32794,0.76694 0.56005,0.96875 0.23209,0.20183 0.86278,0.56511 1.89209,1.08985 0.666,0.3431 0.99901,0.93848 0.99903,1.78613 -2e-5,2.26042 -2.89618,3.39063 -8.68848,3.39063 -4.88412,0 -7.32617,-1.09994 -7.32617,-3.29981 0,-0.5651 0.12614,-0.97379 0.37842,-1.22607 0.25227,-0.25228 0.90315,-0.6307 1.95263,-1.13526 0.66602,-0.30273 1.11507,-0.71646 1.34717,-1.24121 0.23209,-0.52473 0.42887,-1.54394 0.59033,-3.05762 0.18164,-1.61457 0.35319,-4.26349 0.51465,-7.94677 0.16145,-3.68325 0.24218,-6.83673 0.24219,-9.46045 -10e-6,-3.28969 -0.25228,-5.51983 -0.75684,-6.69043 -0.18164,-0.40361 -0.38851,-0.70635 -0.6206,-0.9082 -0.2321,-0.20179 -0.67107,-0.46416 -1.3169,-0.78711 -1.43294,-0.68617 -2.14941,-1.57419 -2.14941,-2.66407 0,-0.70634 0.26741,-1.35217 0.80225,-1.9375 0.53482,-0.58524 1.24625,-0.99898 2.13427,-1.24121 0.88802,-0.26233 2.07373,-0.48938 3.55713,-0.68115 1.48339,-0.19169 2.73974,-0.28756 3.76904,-0.2876 2.58332,4e-5 4.40982,0.21196 5.4795,0.63574 0.52472,0.20187 0.93846,0.47433 1.24121,0.81739 0.30271,0.34314 0.73663,1.04952 1.30176,2.11914 l 6.29687,11.59472 c 0.68617,1.27151 1.16046,2.04853 1.42285,2.33106 0.26235,0.28258 0.62563,0.42385 1.08985,0.42383 0.40361,2e-5 0.76185,-0.15135 1.0747,-0.4541 0.3128,-0.30271 0.68113,-0.86782 1.10498,-1.69532 l 4.26856,-8.32519 c 0.5247,-1.06963 0.8678,-1.76592 1.0293,-2.08887 0.98889,-2.01819 1.96773,-3.36031 2.93652,-4.02637 1.23108,-0.86779 3.47131,-1.30171 6.7207,-1.30175 5.71154,4e-5 8.56733,1.30179 8.56738,3.90527 -5e-5,0.58532 -0.11105,1.05456 -0.333,1.40771 -0.22206,0.35323 -0.67616,0.7821 -1.36231,1.28663 -0.92843,0.70641 -1.51372,1.72561 -1.75586,3.05761 -0.46424,2.78519 -0.69634,6.17581 -0.69629,10.17188 -5e-5,5.1465 0.24214,9.65724 0.72657,13.53222 0.12104,0.94858 0.30773,1.59441 0.56005,1.9375 0.25223,0.34311 0.90311,0.85776 1.95264,1.54395 0.72651,0.48438 1.08979,1.13021 1.08985,1.9375 -6e-5,1.41276 -0.93853,2.41178 -2.81543,2.99707 -0.9688,0.32292 -1.98801,0.53483 -3.05762,0.63574 -1.06971,0.10091 -2.71457,0.15137 -4.93457,0.15137 -3.41085,0 -5.95382,-0.24219 -7.62891,-0.72656 -1.8568,-0.54492 -2.78519,-1.47331 -2.78515,-2.78516 -4e-5,-0.48437 0.12106,-0.88297 0.36328,-1.1958 0.24215,-0.31282 0.8678,-0.88297 1.87695,-1.71045 0.5247,-0.42382 0.88294,-1.2412 1.07471,-2.45215 0.19169,-1.21093 0.28756,-3.26952 0.28759,-6.17578 -3e-5,-1.61457 -0.0757,-2.67414 -0.22705,-3.17871 -0.1514,-0.50454 -0.46927,-0.75682 -0.95361,-0.75684 -0.56514,2e-5 -1.11006,0.38853 -1.63477,1.16553 -0.52477,0.77704 -1.31188,2.32603 -2.36132,4.64697 z"
           style="font-size:62px;letter-spacing:5px;font-family:Cooper Black;-inkscape-font-specification:Cooper Black"
           id="path4033"
           inkscape:connector-curvature="0" />
        <path
           d="m 642.24609,117.40225 c 2.30077,4e-5 4.47036,0.20187 6.50879,0.60547 2.74477,0.54496 4.11717,1.70544 4.11719,3.48145 -2e-5,0.58532 -0.13625,1.02428 -0.40869,1.31689 -0.27249,0.29268 -0.96373,0.72155 -2.07373,1.28662 -0.92841,0.46423 -1.53892,1.48343 -1.83154,3.05762 -0.29267,1.57425 -0.43899,4.64195 -0.43897,9.20312 -2e-5,7.70966 0.19171,12.48276 0.5752,14.31934 0.14125,0.58529 0.35821,1.03435 0.65087,1.34717 0.29263,0.31283 0.80223,0.65088 1.52881,1.01416 1.33201,0.60547 1.99803,1.4834 1.99805,2.63379 -2e-5,1.61458 -1.23114,2.72461 -3.69336,3.33008 -2.66408,0.64583 -5.92352,0.96875 -9.77832,0.96875 -6.57943,0 -9.86914,-1.25131 -9.86914,-3.75391 0,-0.9082 0.64583,-1.75585 1.9375,-2.54297 0.98893,-0.60546 1.57421,-1.43293 1.75586,-2.48242 0.38346,-2.30077 0.57519,-7.18488 0.57519,-14.65234 0,-5.16664 -0.26237,-8.47654 -0.7871,-9.92969 -0.28256,-0.82744 -0.95867,-1.57419 -2.02833,-2.24024 -0.82747,-0.54488 -1.38248,-0.99898 -1.66503,-1.3623 -0.28256,-0.36325 -0.42383,-0.82744 -0.42383,-1.39258 0,-0.8678 0.41878,-1.55904 1.25635,-2.07373 0.83756,-0.51461 2.31591,-0.97375 4.43505,-1.37744 2.52278,-0.50452 5.07584,-0.7568 7.65918,-0.75684 z"
           style="font-size:62px;letter-spacing:5px;font-family:Cooper Black;-inkscape-font-specification:Cooper Black"
           id="path4035"
           inkscape:connector-curvature="0" />
        <path
           d="m 676.61133,119.49112 15.07617,13.19922 c 1.41273,1.23114 2.43193,1.8467 3.05762,1.84668 1.04944,2e-5 1.57418,-1.12009 1.57422,-3.36035 -4e-5,-2.54294 -0.15141,-4.27862 -0.45411,-5.20703 -0.30277,-0.92836 -0.93851,-1.62464 -1.90722,-2.08887 -0.78715,-0.38343 -1.34216,-0.79212 -1.66504,-1.22608 -0.32295,-0.43388 -0.48441,-0.99394 -0.48438,-1.68017 -3e-5,-1.69527 1.16045,-2.78512 3.48145,-3.26953 0.94853,-0.20178 2.60348,-0.3027 4.96484,-0.30274 3.04748,4e-5 5.15653,0.18169 6.32715,0.54492 1.85672,0.56515 2.78511,1.63481 2.78516,3.20899 -5e-5,1.31188 -0.75689,2.30082 -2.27051,2.9668 -0.60552,0.2624 -1.01925,0.4945 -1.24121,0.69628 -0.22205,0.20186 -0.41378,0.5046 -0.5752,0.90821 -0.54496,1.33206 -0.82752,3.85485 -0.84765,7.56836 l 0,9.86914 c -5e-5,1.51368 0.01,3.58237 0.0303,6.20605 0.0201,3.55209 -0.19178,6.11524 -0.63574,7.68946 -0.54497,1.95768 -1.5339,2.93652 -2.9668,2.93652 -0.62569,0 -1.16557,-0.13119 -1.61963,-0.39356 -0.45414,-0.26237 -1.20593,-0.86783 -2.25537,-1.8164 l -17.95215,-16.0752 c -1.25132,-1.13019 -2.2907,-1.69529 -3.11816,-1.69531 -1.23114,2e-5 -1.8467,1.70542 -1.84668,5.11621 -2e-5,2.80535 0.1564,4.72267 0.46924,5.75195 0.31281,1.02931 0.95359,1.78614 1.92236,2.27051 1.3522,0.66602 2.0283,1.53386 2.02832,2.60352 -2e-5,2.80534 -3.01727,4.20801 -9.05176,4.20801 -2.72461,0 -4.83871,-0.35824 -6.34228,-1.07471 -1.50359,-0.71647 -2.25537,-1.73063 -2.25537,-3.04248 0,-0.6862 0.14127,-1.20084 0.42383,-1.54395 0.28254,-0.34309 0.91829,-0.80728 1.90722,-1.39258 0.94856,-0.56509 1.52376,-1.56411 1.72559,-2.99707 0.34309,-2.6035 0.51464,-6.34731 0.51465,-11.23144 -10e-6,-5.20701 -0.30274,-9.00127 -0.90821,-11.38281 -0.22201,-0.86781 -0.50456,-1.51364 -0.84765,-1.9375 -0.34311,-0.4238 -0.90821,-0.82744 -1.69532,-1.21094 -0.9082,-0.44398 -1.5389,-0.87789 -1.89209,-1.30176 -0.35319,-0.42379 -0.52978,-0.93844 -0.52978,-1.54394 0,-1.93746 1.66504,-3.15849 4.99512,-3.66309 1.1302,-0.16142 3.10806,-0.24215 5.93359,-0.24219 1.61457,4e-5 2.79019,0.12618 3.52686,0.37842 0.73663,0.25232 1.60952,0.82247 2.61865,1.71045 z"
           style="font-size:62px;letter-spacing:5px;font-family:Cooper Black;-inkscape-font-specification:Cooper Black"
           id="path4037"
           inkscape:connector-curvature="0" />
        <path
           d="m 729.38281,117.40225 c 2.30077,4e-5 4.47036,0.20187 6.50879,0.60547 2.74477,0.54496 4.11716,1.70544 4.11719,3.48145 -3e-5,0.58532 -0.13626,1.02428 -0.40869,1.31689 -0.27249,0.29268 -0.96373,0.72155 -2.07373,1.28662 -0.92841,0.46423 -1.53892,1.48343 -1.83155,3.05762 -0.29266,1.57425 -0.43898,4.64195 -0.43896,9.20312 -2e-5,7.70966 0.19171,12.48276 0.57519,14.31934 0.14126,0.58529 0.35822,1.03435 0.65088,1.34717 0.29263,0.31283 0.80223,0.65088 1.52881,1.01416 1.33201,0.60547 1.99802,1.4834 1.99805,2.63379 -3e-5,1.61458 -1.23114,2.72461 -3.69336,3.33008 -2.66408,0.64583 -5.92352,0.96875 -9.77832,0.96875 -6.57943,0 -9.86914,-1.25131 -9.86914,-3.75391 0,-0.9082 0.64583,-1.75585 1.9375,-2.54297 0.98893,-0.60546 1.57421,-1.43293 1.75586,-2.48242 0.38346,-2.30077 0.57519,-7.18488 0.57519,-14.65234 0,-5.16664 -0.26237,-8.47654 -0.78711,-9.92969 -0.28255,-0.82744 -0.95866,-1.57419 -2.02832,-2.24024 -0.82747,-0.54488 -1.38248,-0.99898 -1.66504,-1.3623 -0.28255,-0.36325 -0.42382,-0.82744 -0.42382,-1.39258 0,-0.8678 0.41878,-1.55904 1.25634,-2.07373 0.83757,-0.51461 2.31592,-0.97375 4.43506,-1.37744 2.52278,-0.50452 5.07584,-0.7568 7.65918,-0.75684 z"
           style="font-size:62px;letter-spacing:5px;font-family:Cooper Black;-inkscape-font-specification:Cooper Black"
           id="path4039"
           inkscape:connector-curvature="0" />
        <path
           d="m 765.38281,117.19034 c 2.07876,4e-5 4.80336,0.51469 8.17383,1.54394 0.40362,0.12114 0.72653,0.18168 0.96875,0.18164 0.20179,4e-5 0.80726,-0.1816 1.81641,-0.54492 0.32288,-0.12105 0.66598,-0.1816 1.02929,-0.18164 1.35218,4e-5 2.78008,1.0697 4.2837,3.20899 1.50354,2.13936 2.25533,4.17776 2.25537,6.11523 -4e-5,1.13024 -0.33809,2.08385 -1.01416,2.86084 -0.67615,0.77705 -1.49857,1.16556 -2.46729,1.16553 -0.80732,3e-5 -1.46325,-0.16143 -1.96777,-0.48438 -0.50459,-0.32289 -1.61462,-1.28154 -3.33008,-2.87597 -2.4219,-2.26039 -4.80341,-3.39059 -7.14453,-3.39063 -1.13023,4e-5 -2.03339,0.2725 -2.70947,0.81738 -0.67613,0.54496 -1.01418,1.26143 -1.01416,2.14942 -2e-5,1.75589 1.54392,3.07783 4.63183,3.96582 4.17771,1.23114 6.85186,2.12926 8.02246,2.69433 5.14645,2.50263 7.71969,6.1859 7.71973,11.04981 -4e-5,4.29884 -1.7559,7.81055 -5.26758,10.53516 -3.59248,2.78515 -8.28486,4.17773 -14.07715,4.17773 -2.58335,0 -5.30795,-0.30778 -8.17383,-0.92334 -2.86589,-0.61556 -4.93457,-1.33708 -6.20605,-2.16455 -0.96875,-0.64583 -1.84164,-2.05354 -2.61865,-4.22315 -0.77702,-2.16958 -1.16553,-4.28368 -1.16553,-6.34228 0,-0.98892 0.20182,-1.73566 0.60547,-2.24023 0.50455,-0.64582 1.14029,-0.96874 1.90722,-0.96875 0.76693,1e-5 1.50358,0.39357 2.20997,1.18066 0.42382,0.44402 1.42284,1.86687 2.99707,4.26855 0.74673,1.13022 1.93244,2.0687 3.55713,2.81543 1.62466,0.74676 3.30483,1.12013 5.04052,1.12012 1.49347,1e-5 2.70441,-0.2775 3.63281,-0.83252 0.92837,-0.555 1.39256,-1.26643 1.39258,-2.13428 -2e-5,-0.80728 -0.3633,-1.50357 -1.08984,-2.08886 -0.72658,-0.58528 -1.90725,-1.1302 -3.54199,-1.63477 -2.88609,-0.90819 -5.08595,-1.74071 -6.59961,-2.49756 -1.51368,-0.75682 -2.92644,-1.71043 -4.23828,-2.86084 -3.18881,-2.8255 -4.78321,-6.03448 -4.78321,-9.62695 0,-1.77601 0.41374,-3.50664 1.24121,-5.1919 0.82747,-1.68518 1.99805,-3.14335 3.51172,-4.37451 3.39062,-2.84566 7.52798,-4.26851 12.41211,-4.26855 z"
           style="font-size:62px;letter-spacing:5px;font-family:Cooper Black;-inkscape-font-specification:Cooper Black"
           id="path4041"
           inkscape:connector-curvature="0" />
        <path
           d="m 804.98535,118.03799 15.9541,0 c 1.71547,-0.0605 3.27959,-0.2926 4.69239,-0.69628 0.60543,-0.16142 1.14026,-0.24215 1.60449,-0.24219 1.63473,4e-5 3.22408,1.21098 4.76806,3.63281 1.54391,2.42191 2.31588,4.91442 2.31592,7.47754 -4e-5,1.75589 -0.53487,3.03746 -1.60449,3.84473 -0.80733,0.60549 -1.77608,0.90823 -2.90625,0.9082 -1.0697,3e-5 -1.99808,-0.29766 -2.78516,-0.89307 -0.78714,-0.59535 -1.56416,-1.57923 -2.33105,-2.95166 -0.66605,-1.25127 -1.19079,-2.06865 -1.57422,-2.45215 -0.38349,-0.38343 -0.84769,-0.57516 -1.39258,-0.57519 -0.74677,3e-5 -1.2816,0.31286 -1.60449,0.93848 -0.32295,0.62568 -0.4844,1.65497 -0.48437,3.08789 l 0,16.95312 c -3e-5,1.73569 0.18161,2.99708 0.54492,3.78418 0.36325,0.78712 1.04945,1.39259 2.05859,1.81641 1.08981,0.4642 1.83151,0.90316 2.2251,1.31689 0.39352,0.41374 0.5903,0.98389 0.59033,1.71045 -3e-5,1.45313 -0.98392,2.53288 -2.95166,3.23926 -1.9678,0.70638 -4.9901,1.05957 -9.06689,1.05957 -5.00523,0 -8.71877,-0.41374 -11.14063,-1.24121 -2.03842,-0.6862 -3.05762,-1.79622 -3.05762,-3.33008 0,-0.82747 0.36328,-1.4733 1.08985,-1.9375 0.18163,-0.10091 0.8981,-0.34309 2.14941,-0.72656 0.76692,-0.222 1.2967,-0.64583 1.58936,-1.27149 0.29263,-0.62564 0.52977,-1.82648 0.71142,-3.60254 0.16145,-1.5742 0.31281,-4.12221 0.4541,-7.64404 0.14127,-3.52179 0.2119,-6.57435 0.21192,-9.15771 -2e-5,-1.81638 -0.14129,-3.10805 -0.42383,-3.875 -0.28257,-0.7669 -0.74676,-1.15036 -1.39258,-1.15039 -0.78712,3e-5 -1.55405,0.56513 -2.30078,1.69531 -1.35222,2.05862 -2.46225,3.42092 -3.33008,4.08691 -1.0293,0.78714 -2.02832,1.18069 -2.99707,1.18067 -1.08984,2e-5 -1.98795,-0.40867 -2.69433,-1.22608 -0.70638,-0.81735 -1.05957,-1.86178 -1.05957,-3.1333 0,-1.25127 0.28255,-2.62871 0.84765,-4.13232 0.56511,-1.50355 1.32194,-2.89108 2.27051,-4.1626 1.53385,-2.05855 3.04752,-3.08785 4.54102,-3.08789 0.40363,4e-5 0.86783,0.0606 1.39257,0.18164 1.08984,0.22205 1.9829,0.37341 2.6792,0.4541 0.69628,0.0808 1.49853,0.12114 2.40674,0.12109 z"
           style="font-size:62px;letter-spacing:5px;font-family:Cooper Black;-inkscape-font-specification:Cooper Black"
           id="path4043"
           inkscape:connector-curvature="0" />
        <path
           d="m 860.33008,141.98428 c -0.76695,2e-5 -1.25637,0.23212 -1.46826,0.69629 -0.21194,0.46421 -0.31789,1.54396 -0.31787,3.23926 -2e-5,2.56316 0.16143,4.56121 0.48437,5.99414 0.10089,0.40365 0.25226,0.71648 0.4541,0.93848 0.2018,0.22201 0.58527,0.49447 1.15039,0.81738 1.21092,0.66602 1.81639,1.54395 1.81641,2.63379 -2e-5,1.33203 -0.84263,2.27555 -2.52783,2.83057 -1.68524,0.55501 -4.53599,0.83252 -8.55225,0.83252 -7.46745,0 -11.20117,-1.41276 -11.20117,-4.23829 0,-0.48437 0.111,-0.87288 0.33301,-1.16552 0.222,-0.29264 0.72656,-0.70133 1.51367,-1.22608 0.88802,-0.58528 1.48844,-1.27652 1.80127,-2.07373 0.31282,-0.79719 0.52978,-2.17463 0.65088,-4.13232 0.1009,-1.43293 0.15136,-6.56932 0.15136,-15.40918 0,-2.80531 -0.14128,-4.71253 -0.42382,-5.72168 -0.28256,-1.00908 -0.88803,-1.74573 -1.81641,-2.20996 -0.88802,-0.42379 -1.4834,-0.8123 -1.78613,-1.16553 -0.30274,-0.35315 -0.45411,-0.8123 -0.4541,-1.37744 -10e-6,-0.74671 0.28759,-1.39759 0.86279,-1.95264 0.57519,-0.55497 1.37744,-0.96366 2.40674,-1.22607 0.86783,-0.22197 2.05858,-0.33297 3.57226,-0.33301 0.66601,4e-5 2.33105,0.10095 4.99512,0.30273 0.50454,0.0404 1.30174,0.0606 2.3916,0.0606 1.81639,4e-5 4.23826,-0.12105 7.26563,-0.36328 1.91729,-0.14123 3.25941,-0.21187 4.02636,-0.21191 4.31898,4e-5 7.89124,1.03943 10.7168,3.11816 2.54293,1.87699 3.81441,4.4805 3.81445,7.81055 -4e-5,1.8568 -0.44405,3.54706 -1.33203,5.0708 -0.88806,1.52379 -2.10909,2.66913 -3.66308,3.43603 -0.64587,0.32294 -0.96879,0.70641 -0.96875,1.15039 -4e-5,0.58531 0.49443,1.05959 1.48339,1.42286 2.11911,0.76694 3.67314,1.92742 4.66211,3.48144 0.98889,1.55405 1.69527,3.93556 2.11914,7.14453 0.1816,1.33204 0.44397,2.19483 0.78711,2.58838 0.34306,0.39356 1.14026,0.77198 2.39161,1.13525 0.38341,0.1211 0.70633,0.37843 0.96875,0.77198 0.26232,0.39356 0.3935,0.83252 0.39355,1.31689 -5e-5,0.62566 -0.24223,1.25635 -0.72656,1.89209 -0.48442,0.63574 -1.11007,1.13526 -1.87696,1.49854 -1.69535,0.78711 -4.01631,1.18066 -6.96289,1.18066 -3.93558,0 -6.751,-1.03939 -8.44629,-3.11816 -0.76695,-0.92839 -1.41783,-2.09896 -1.95263,-3.51172 -0.53486,-1.41276 -1.16556,-3.61262 -1.89209,-6.59961 -0.46422,-1.9173 -1.05455,-3.26952 -1.771,-4.05664 -0.71649,-0.78709 -1.74074,-1.21092 -3.07275,-1.27149 z m -1.75586,-15.43945 -0.33301,7.05371 c -2e-5,0.0606 -2e-5,0.15139 0,0.27246 -2e-5,0.72659 0.10594,1.21096 0.31787,1.45313 0.2119,0.24221 0.64077,0.3633 1.28662,0.36328 1.77602,2e-5 3.06769,-0.45912 3.875,-1.37744 0.80727,-0.91827 1.21092,-2.38653 1.21094,-4.40479 -2e-5,-3.89515 -1.38251,-5.84274 -4.14746,-5.84277 -0.78713,3e-5 -1.34214,0.18167 -1.66504,0.54492 -0.32294,0.36332 -0.50458,1.00915 -0.54492,1.9375 z"
           style="font-size:62px;letter-spacing:5px;font-family:Cooper Black;-inkscape-font-specification:Cooper Black"
           id="path4045"
           inkscape:connector-curvature="0" />
        <path
           d="m 905.80566,117.40225 c 3.95572,4e-5 6.97297,0.21196 9.05176,0.63574 0.94855,0.18169 1.71043,0.53992 2.28565,1.07471 0.57517,0.53487 0.86276,1.14539 0.86279,1.83154 -3e-5,0.52478 -0.22203,1.05961 -0.66602,1.6045 -0.64585,0.82751 -0.96877,1.42288 -0.96875,1.78613 -2e-5,0.7266 0.57517,1.88708 1.72559,3.48145 0.74672,1.02932 1.4531,1.54397 2.11914,1.54394 0.4238,3e-5 0.83754,-0.15638 1.24121,-0.46924 0.40362,-0.31279 0.92836,-0.87285 1.57422,-1.68017 0.78708,-0.9889 1.18063,-1.77601 1.18066,-2.36133 -3e-5,-0.36325 -0.0454,-0.63571 -0.13623,-0.81738 -0.0909,-0.18161 -0.41881,-0.61553 -0.98388,-1.30176 -0.40368,-0.46416 -0.6055,-1.08981 -0.60547,-1.87696 -3e-5,-2.28055 3.08786,-3.42085 9.26367,-3.42089 3.49149,4e-5 5.762,0.1615 6.81152,0.48437 0.66597,0.20187 1.21594,0.58533 1.64991,1.15039 0.43387,0.56515 0.65083,1.17061 0.65087,1.81641 -4e-5,0.82751 -0.25232,1.45316 -0.75683,1.87695 -0.50461,0.42387 -1.38253,0.74678 -2.63379,0.96875 -1.15043,0.22204 -2.14946,0.66101 -2.99707,1.3169 -0.8477,0.65595 -2.40173,2.19485 -4.66211,4.61669 -2.74483,2.96683 -4.45527,5.15156 -5.13135,6.5542 -0.67614,1.4027 -1.01419,3.49661 -1.01416,6.28174 -3e-5,2.34116 0.0908,4.51076 0.27246,6.50879 0.10088,1.23113 0.29261,2.08383 0.5752,2.55811 0.28252,0.47429 0.8678,0.94353 1.75586,1.40771 1.47327,0.76693 2.20992,1.72559 2.20996,2.87598 -4e-5,2.74479 -4.05667,4.11719 -12.16992,4.11719 -3.3301,0 -6.47854,-0.32292 -9.44532,-0.96875 -2.50261,-0.54493 -3.75391,-1.62468 -3.7539,-3.23926 -10e-6,-1.2513 0.76691,-2.14941 2.30078,-2.69434 1.15038,-0.40364 1.86685,-0.91829 2.14941,-1.54394 0.64582,-1.39257 0.96874,-4.68228 0.96875,-9.86914 -10e-6,-1.61457 -0.16147,-2.87091 -0.48437,-3.76905 -0.32293,-0.89809 -1.02931,-2.06361 -2.11914,-3.49658 -2.28061,-2.96677 -4.63185,-5.64092 -7.05371,-8.02246 -1.04949,-1.02926 -2.0586,-1.72555 -3.02735,-2.08887 -1.37239,-0.50452 -2.19987,-0.87789 -2.48242,-1.12011 -0.5651,-0.48434 -0.84766,-1.13018 -0.84766,-1.9375 0,-1.35218 1.01921,-2.32597 3.05762,-2.92139 2.03841,-0.59534 5.44921,-0.89303 10.23242,-0.89307 z"
           style="font-size:62px;letter-spacing:5px;font-family:Cooper Black;-inkscape-font-specification:Cooper Black"
           id="path4047"
           inkscape:connector-curvature="0" />
      </g>
      <g
         transform="translate(-485.6378,282.79624)"
         id="g6580"
         style="fill:#008000;display:inline">
        <path
           style="opacity:0.86725619;fill:#008000;fill-opacity:1;fill-rule:nonzero;stroke:none;display:inline"
           d="m 423.04445,709.01858 c -17.85322,0 -32.3183,14.465 -32.3183,32.3183 0,17.8532 14.46508,32.3426 32.3183,32.3426 17.85319,0 32.31829,-14.4894 32.31829,-32.3426 0,-17.8533 -14.4651,-32.3183 -32.31829,-32.3183 z m 3.80503,7.4637 c 13.85576,0 1.94956,17.1699 4.00016,23.513 2.5372,7.8488 11.9866,21.8272 2.3171,24.0985 -13.48859,3.1684 -27.65954,-8.4622 -27.65954,-22.3179 0,-13.8558 7.48652,-25.2936 21.34228,-25.2936 z"
           id="path5759"
           inkscape:connector-curvature="0" />
        <g
           transform="translate(161.97556,162.40164)"
           style="fill:#008000;display:inline"
           id="g6542">
          <path
             sodipodi:nodetypes="csc"
             inkscape:connector-curvature="0"
             id="path6457-1"
             d="m 273.51334,563.04254 c -9.74057,-70.15458 -44.65963,-22.35296 -52.3981,-28.31111 -8.53295,-6.56987 25.43033,-19.7807 39.96054,-6.35586"
             style="fill:#008000;stroke:#008000;stroke-width:2.25853539px;stroke-linecap:butt;stroke-linejoin:miter;stroke-opacity:0.86666667" />
          <path
             style="fill:#008000;stroke:#008000;stroke-width:2.25853539px;stroke-linecap:butt;stroke-linejoin:miter;stroke-opacity:0.86666667"
             d="m 273.87048,560.54254 c -5.13955,-15.45367 -5.84958,-22.85308 -9.58562,-28.35347 -3.73604,-5.50039 -8.53382,-5.53034 -3.63459,-6.95937 9.4852,-2.7667 17.98022,-7.75288 20.97234,-11.0693 8.87038,-9.83179 -19.99103,-12.43851 -23.31796,11.70061"
             id="path6461-7"
             inkscape:connector-curvature="0"
             sodipodi:nodetypes="csssc" />
        </g>
      </g>
    </g>
  </g>
</svg>
