<?xml version="1.0" encoding="UTF-8" standalone="no"?>
<!-- Created with Inkscape (http://www.inkscape.org/) -->

<svg
   xmlns:dc="http://purl.org/dc/elements/1.1/"
   xmlns:cc="http://creativecommons.org/ns#"
   xmlns:rdf="http://www.w3.org/1999/02/22-rdf-syntax-ns#"
   xmlns:svg="http://www.w3.org/2000/svg"
   xmlns="http://www.w3.org/2000/svg"
   xmlns:sodipodi="http://sodipodi.sourceforge.net/DTD/sodipodi-0.dtd"
   xmlns:inkscape="http://www.inkscape.org/namespaces/inkscape"
   width="169.5"
   height="112.5"
   id="svg4884"
   version="1.1"
   inkscape:version="0.48.4 r9939"
   sodipodi:docname="new-logo1.svg">
  <defs
     id="defs4886" />
  <sodipodi:namedview
     id="base"
     pagecolor="#000000"
     bordercolor="#666666"
     borderopacity="1.0"
     inkscape:pageopacity="1"
     inkscape:pageshadow="2"
     inkscape:zoom="1.979899"
     inkscape:cx="106.73654"
     inkscape:cy="13.224986"
     inkscape:document-units="px"
     inkscape:current-layer="layer1"
     showgrid="false"
     inkscape:window-width="1600"
     inkscape:window-height="838"
     inkscape:window-x="-8"
     inkscape:window-y="-8"
     inkscape:window-maximized="1" />
  <metadata
     id="metadata4889">
    <rdf:RDF>
      <cc:Work
         rdf:about="">
        <dc:format>image/svg+xml</dc:format>
        <dc:type
           rdf:resource="http://purl.org/dc/dcmitype/StillImage" />
        <dc:title></dc:title>
      </cc:Work>
    </rdf:RDF>
  </metadata>
  <g
     inkscape:label="Layer 1"
     inkscape:groupmode="layer"
     id="layer1"
     transform="translate(0,-939.86218)">
    <g
       id="flowRoot4270"
       style="font-size:72px;font-style:normal;font-weight:normal;line-height:81.00000024000000600%;letter-spacing:0px;word-spacing:0px;fill:#ffffff;fill-opacity:1;stroke:none;font-family:Sans"
       transform="matrix(0.49243159,0,0,0.49243159,-50.382188,916.38228)">
      <path
         inkscape:connector-curvature="0"
         id="path6094"
         style="font-size:85px;letter-spacing:-2.28999995999999980px;fill:#ffffff"
         d="m 108.09961,133.1313 7.59521,-0.66407 c 0.35969,3.04364 1.19669,5.54079 2.51099,7.49146 1.31428,1.95069 3.35488,3.52784 6.12183,4.73145 2.7669,1.20362 5.87969,1.80542 9.33838,1.80542 3.07125,0 5.78284,-0.45654 8.13476,-1.36963 2.35185,-0.91308 4.10193,-2.16511 5.25025,-3.75611 1.14823,-1.59097 1.72236,-3.32721 1.72241,-5.20874 -5e-5,-1.90916 -0.55343,-3.57623 -1.66016,-5.00122 -1.10681,-1.42494 -2.93298,-2.62164 -5.47851,-3.59009 -1.63253,-0.63636 -5.24336,-1.62554 -10.83252,-2.96753 -5.58922,-1.34193 -9.50442,-2.60779 -11.74561,-3.7976 -2.90528,-1.52178 -5.0704,-3.41021 -6.49536,-5.66529 -1.42498,-2.255 -2.13746,-4.77982 -2.13745,-7.57446 -10e-6,-3.07124 0.87157,-5.94192 2.61474,-8.612059 1.74316,-2.670029 4.28873,-4.696801 7.63672,-6.080323 3.34796,-1.383402 7.06948,-2.075133 11.16455,-2.075195 4.51006,6.2e-5 8.48752,0.72638 11.93238,2.178955 3.44478,1.452695 6.09411,3.590144 7.94799,6.412354 1.8538,2.822318 2.84989,6.018118 2.98829,9.587398 l -7.71973,0.58106 c -0.41508,-3.84598 -1.8193,-6.75125 -4.21265,-8.71582 -2.39342,-1.964466 -5.92817,-2.946724 -10.60425,-2.946779 -4.86981,5.5e-5 -8.41839,0.892388 -10.64575,2.676999 -2.22739,1.78472 -3.34108,3.936 -3.34106,6.45386 -2e-5,2.18592 0.78856,3.98442 2.36572,5.39551 1.54946,1.41117 5.59609,2.85689 12.13989,4.33716 6.54375,1.48034 11.03309,2.77387 13.46802,3.88061 3.54162,1.63252 6.15637,3.70079 7.84424,6.20484 1.68777,2.50409 2.53169,5.38861 2.53174,8.65356 -5e-5,3.23732 -0.92697,6.28785 -2.78076,9.15161 -1.85389,2.86378 -4.51706,5.09115 -7.98951,6.68213 -3.47253,1.59098 -7.38081,2.38647 -11.72485,2.38647 -5.50621,0 -10.12005,-0.8024 -13.84155,-2.40722 -3.72153,-1.60482 -6.64064,-4.01896 -8.75733,-7.24243 -2.1167,-3.22346 -3.23039,-6.86888 -3.34106,-10.93628 z" />
      <path
         inkscape:connector-curvature="0"
         id="path6096"
         style="font-size:85px;letter-spacing:-2.28999995999999980px;fill:#ffffff"
         d="m 239.80386,152.67964 -16.14502,-60.844729 8.25928,0 9.25537,39.885249 c 0.99608,4.17808 1.85382,8.32847 2.57324,12.45118 1.54946,-6.50227 2.46255,-10.25145 2.73926,-11.24756 l 11.57959,-41.088869 9.71192,0 8.71582,30.795899 c 2.18581,7.63674 3.76296,14.81691 4.73144,21.54053 0.77468,-3.84602 1.78461,-8.25926 3.02979,-13.23975 l 9.5459,-39.096679 8.09326,0 -16.68457,60.844729 -7.76123,0 -12.82471,-46.35987 c -1.07914,-3.87364 -1.71554,-6.2532 -1.90918,-7.138668 -0.63643,2.794648 -1.23132,5.174198 -1.78467,7.138668 l -12.90771,46.35987 z" />
      <path
         inkscape:connector-curvature="0"
         id="path6098"
         style="font-size:85px;letter-spacing:-2.28999995999999980px;fill:#ffffff"
         d="m 308.44405,152.67964 0,-60.844729 8.05175,0 0,60.844729 z" />
      <path
         inkscape:connector-curvature="0"
         id="path6100"
         style="font-size:85px;letter-spacing:-2.28999995999999980px;fill:#ffffff"
         d="m 328.27562,152.67964 0,-60.844729 8.25928,0 31.958,47.770999 0,-47.770999 7.71973,0 0,60.844729 -8.25928,0 -31.958,-47.8125 0,47.8125 z" />
      <path
         inkscape:connector-curvature="0"
         id="path6102"
         style="font-size:85px;letter-spacing:-2.28999995999999980px;fill:#ffffff"
         d="m 415.96609,128.81489 0,-7.13867 25.77393,-0.0415 0,22.57812 c -3.95676,3.1543 -8.03798,5.52694 -12.24365,7.11792 -4.20578,1.59098 -8.52218,2.38647 -12.94922,2.38647 -5.97659,0 -11.40668,-1.2797 -16.29028,-3.83911 -4.88364,-2.5594 -8.57057,-6.26016 -11.06079,-11.10229 -2.49024,-4.84211 -3.73536,-10.25144 -3.73536,-16.22803 0,-5.92119 1.2382,-11.44812 3.7146,-16.58081 2.47639,-5.1326 6.03881,-8.944035 10.68726,-11.434325 4.64841,-2.490174 10.00241,-3.73529 16.06201,-3.735352 4.39938,6.2e-5 8.37683,0.712545 11.93237,2.137451 3.55545,1.425026 6.34313,3.410294 8.36304,5.955811 2.0198,2.545625 3.55544,5.865935 4.60693,9.960935 l -7.26318,1.99219 c -0.91314,-3.09891 -2.04758,-5.53381 -3.40332,-7.30469 -1.35584,-1.77078 -3.29269,-3.18883 -5.81055,-4.254148 -2.51794,-1.065213 -5.31253,-1.597846 -8.38379,-1.597901 -3.68004,5.5e-5 -6.862,0.560358 -9.54589,1.680909 -2.68395,1.12066 -4.84906,2.59404 -6.49536,4.42017 -1.64634,1.82621 -2.92605,3.83223 -3.83912,6.01806 -1.54949,3.76306 -2.32423,7.84428 -2.32421,12.24365 -2e-5,5.42321 0.93382,9.96096 2.80151,13.61329 1.86766,3.65235 4.58616,6.36394 8.15552,8.13476 3.5693,1.77084 7.35999,2.65626 11.37207,2.65625 3.48629,1e-5 6.8896,-0.67097 10.20996,-2.01294 3.32026,-1.34195 5.83816,-2.77383 7.55371,-4.29565 l 0,-11.33057 z" />
      <path
         inkscape:connector-curvature="0"
         id="path6104"
         style="letter-spacing:-2.66000009000000000px;fill:#ffffff"
         d="m 122.94922,214.49077 0,-45.45703 -16.98047,0 0,-6.08203 40.85156,0 0,6.08203 -17.05078,0 0,45.45703 z" />
      <path
         inkscape:connector-curvature="0"
         id="path6106"
         style="letter-spacing:-2.66000009000000000px;fill:#ffffff"
         d="m 151.4025,214.49077 0,-51.53906 6.82031,0 0,21.16406 26.78907,0 0,-21.16406 6.82031,0 0,51.53906 -6.82031,0 0,-24.29297 -26.78907,0 0,24.29297 z" />
      <path
         inkscape:connector-curvature="0"
         id="path6108"
         style="letter-spacing:-2.66000009000000000px;fill:#ffffff"
         d="m 200.70344,214.49077 0,-51.53906 37.26562,0 0,6.08203 -30.44531,0 0,15.78516 28.51172,0 0,6.04687 -28.51172,0 0,17.54297 31.64063,0 0,6.08203 z" />
      <path
         inkscape:connector-curvature="0"
         id="path6110"
         style="letter-spacing:-2.66000009000000000px;fill:#ffffff"
         d="m 260.985,197.93218 6.43359,-0.5625 c 0.30468,2.57814 1.01367,4.69337 2.12696,6.3457 1.11327,1.65235 2.84178,2.98829 5.18554,4.00781 2.34374,1.01954 4.98045,1.52931 7.91016,1.5293 2.60154,1e-5 4.89841,-0.38671 6.89063,-1.16016 1.99215,-0.77343 3.47457,-1.83397 4.44726,-3.18164 0.97262,-1.34764 1.45895,-2.81834 1.45899,-4.41211 -4e-5,-1.61717 -0.46879,-3.02928 -1.40625,-4.23632 -0.93754,-1.20702 -2.48441,-2.22069 -4.64063,-3.04102 -1.38284,-0.53904 -4.44143,-1.37693 -9.17578,-2.51367 -4.73439,-1.13669 -8.0508,-2.20896 -9.94922,-3.2168 -2.46095,-1.28903 -4.29493,-2.88864 -5.50195,-4.79883 -1.20704,-1.91012 -1.81055,-4.04879 -1.81055,-6.41601 0,-2.60152 0.73828,-5.03316 2.21484,-7.29492 1.47656,-2.26167 3.63281,-3.97847 6.46875,-5.15039 2.83593,-1.17183 5.98827,-1.75776 9.45704,-1.75782 3.82028,6e-5 7.18942,0.61529 10.10742,1.84571 2.91793,1.23051 5.16207,3.04106 6.73242,5.43164 1.57027,2.39067 2.41402,5.09769 2.53125,8.12109 l -6.53906,0.49219 c -0.3516,-3.25777 -1.54105,-5.71871 -3.56836,-7.38281 -2.02738,-1.66402 -5.02151,-2.49605 -8.98242,-2.4961 -4.12502,5e-5 -7.13088,0.75591 -9.01758,2.26758 -1.88673,1.51176 -2.83009,3.33403 -2.83008,5.4668 -10e-6,1.8516 0.66796,3.37503 2.00391,4.57031 1.31248,1.19535 4.74021,2.41995 10.2832,3.67383 5.54294,1.25393 9.34567,2.34964 11.4082,3.28711 2.99996,1.38284 5.2148,3.13479 6.64453,5.25586 1.42965,2.12111 2.14449,4.56447 2.14453,7.33007 -4e-5,2.7422 -0.7852,5.32619 -2.35546,7.75196 -1.57036,2.42578 -3.82621,4.3125 -6.76758,5.66015 -2.94144,1.34766 -6.25198,2.02149 -9.93164,2.02149 -4.66409,0 -8.57229,-0.67969 -11.72461,-2.03906 -3.15236,-1.35938 -5.62501,-3.4043 -7.41797,-6.13477 -1.79297,-2.73046 -2.73633,-5.81835 -2.83008,-9.26367 z" />
      <path
         inkscape:connector-curvature="0"
         id="path6112"
         style="letter-spacing:-2.66000009000000000px;fill:#ffffff"
         d="m 308.87968,214.49077 0,-51.53906 37.26563,0 0,6.08203 -30.44531,0 0,15.78516 28.51172,0 0,6.04687 -28.51172,0 0,17.54297 31.64062,0 0,6.08203 z" />
      <path
         inkscape:connector-curvature="0"
         id="path6114"
         style="letter-spacing:-2.66000009000000000px;fill:#ffffff"
         d="m 354.31343,214.49077 0,-51.53906 37.26563,0 0,6.08203 -30.44532,0 0,15.78516 28.51172,0 0,6.04687 -28.51172,0 0,17.54297 31.64063,0 0,6.08203 z" />
      <path
         inkscape:connector-curvature="0"
         id="path6116"
         style="letter-spacing:-2.66000009000000000px;fill:#ffffff"
         d="m 399.60657,214.49077 0,-51.53906 17.7539,0 c 4.00779,5e-5 7.06638,0.24614 9.17578,0.73828 2.95309,0.67974 5.47262,1.91021 7.5586,3.69141 2.71871,2.29692 4.75191,5.23246 6.09961,8.80664 1.34761,3.57425 2.02143,7.65823 2.02148,12.25195 -5e-5,3.91409 -0.45708,7.38283 -1.37109,10.40625 -0.91411,3.02345 -2.08598,5.5254 -3.51563,7.50586 -1.42973,1.98048 -2.99418,3.53907 -4.69336,4.67578 -1.69925,1.13672 -3.75003,1.99805 -6.15234,2.58399 -2.40237,0.58593 -5.16214,0.8789 -8.2793,0.8789 z m 6.82031,-6.08203 11.00391,0 c 3.39841,1e-5 6.06442,-0.3164 7.99804,-0.94922 1.93356,-0.6328 3.47458,-1.52343 4.62305,-2.67187 1.61715,-1.61718 2.87691,-3.791 3.7793,-6.52149 0.9023,-2.73045 1.35347,-6.04099 1.35351,-9.93164 -4e-5,-5.39059 -0.8848,-9.53317 -2.65429,-12.42773 -1.76957,-2.89449 -3.91996,-4.83394 -6.45118,-5.81836 -1.82815,-0.70308 -4.76955,-1.05464 -8.82422,-1.05469 l -10.82812,0 z" />
      <path
         inkscape:connector-curvature="0"
         id="path6118"
         style="letter-spacing:-0.55999732000000002px;fill:#ffffff"
         d="m 109.625,272.81078 0,-51.53906 10.26563,0 12.19921,36.49218 c 1.12497,3.39845 1.94529,5.94142 2.46094,7.62891 0.58591,-1.87499 1.49997,-4.62889 2.74219,-8.26172 l 12.33984,-35.85937 9.17578,0 0,51.53906 -6.57422,0 0,-43.13672 -14.97656,43.13672 -6.15234,0 -14.90625,-43.875 0,43.875 z" />
      <path
         inkscape:connector-curvature="0"
         id="path6120"
         style="letter-spacing:-0.55999732000000002px;fill:#ffffff"
         d="m 170.48297,272.81078 0,-51.53906 6.82031,0 0,51.53906 z" />
      <path
         inkscape:connector-curvature="0"
         id="path6122"
         style="letter-spacing:-0.55999732000000002px;fill:#ffffff"
         d="m 188.66125,272.81078 0,-51.53906 6.9961,0 27.07031,40.46484 0,-40.46484 6.53906,0 0,51.53906 -6.99609,0 -27.07031,-40.5 0,40.5 z" />
      <path
         inkscape:connector-curvature="0"
         id="path6124"
         style="letter-spacing:-0.55999732000000002px;fill:#ffffff"
         d="m 241.36298,272.81078 0,-51.53906 6.82031,0 0,51.53906 z" />
      <path
         inkscape:connector-curvature="0"
         id="path6126"
         style="letter-spacing:-0.55999732000000002px;fill:#ffffff"
         d="m 257.29126,256.25219 6.43359,-0.5625 c 0.30468,2.57814 1.01366,4.69337 2.12696,6.3457 1.11326,1.65235 2.84178,2.98829 5.18554,4.00781 2.34373,1.01954 4.98045,1.5293 7.91016,1.5293 2.60153,0 4.89841,-0.38671 6.89062,-1.16016 1.99216,-0.77343 3.47458,-1.83397 4.44727,-3.18164 0.97262,-1.34764 1.45895,-2.81835 1.45898,-4.41211 -3e-5,-1.61717 -0.46878,-3.02928 -1.40625,-4.23633 -0.93753,-1.20701 -2.4844,-2.22068 -4.64062,-3.04101 -1.38284,-0.53904 -4.44143,-1.37693 -9.17578,-2.51367 -4.73439,-1.1367 -8.0508,-2.20896 -9.94922,-3.2168 -2.46095,-1.28903 -4.29493,-2.88864 -5.50195,-4.79883 -1.20704,-1.91012 -1.81056,-4.04879 -1.81055,-6.41601 -1e-5,-2.60153 0.73828,-5.03316 2.21484,-7.29493 1.47656,-2.26167 3.6328,-3.97846 6.46875,-5.15039 2.83592,-1.17182 5.98826,-1.75776 9.45703,-1.75781 3.82029,5e-5 7.18943,0.61529 10.10743,1.8457 2.91793,1.23052 5.16207,3.04107 6.73242,5.43164 1.57027,2.39067 2.41402,5.0977 2.53125,8.1211 l -6.53906,0.49219 c -0.3516,-3.25778 -1.54105,-5.71871 -3.56836,-7.38282 -2.02738,-1.66401 -5.02152,-2.49604 -8.98243,-2.49609 -4.12501,5e-5 -7.13087,0.7559 -9.01757,2.26758 -1.88673,1.51176 -2.83009,3.33402 -2.83008,5.46679 -10e-6,1.8516 0.66795,3.37504 2.0039,4.57032 1.31249,1.19534 4.74022,2.41995 10.28321,3.67383 5.54294,1.25393 9.34567,2.34963 11.4082,3.2871 2.99996,1.38284 5.2148,3.13479 6.64453,5.25586 1.42965,2.12112 2.14449,4.56447 2.14453,7.33008 -4e-5,2.7422 -0.7852,5.32618 -2.35547,7.75196 -1.57035,2.42578 -3.82621,4.3125 -6.76757,5.66015 -2.94144,1.34766 -6.25199,2.02149 -9.93164,2.02149 -4.66409,0 -8.57229,-0.67969 -11.72461,-2.03907 -3.15236,-1.35937 -5.62501,-3.40429 -7.41797,-6.13476 -1.79298,-2.73046 -2.73633,-5.81835 -2.83008,-9.26367 z" />
      <path
         inkscape:connector-curvature="0"
         id="path6128"
         style="letter-spacing:-0.55999732000000002px;fill:#ffffff"
         d="m 320.25861,272.81078 0,-45.45703 -16.98047,0 0,-6.08203 40.85156,0 0,6.08203 -17.05078,0 0,45.45703 z" />
      <path
         inkscape:connector-curvature="0"
         id="path6130"
         style="letter-spacing:-0.55999732000000002px;fill:#ffffff"
         d="m 350.70642,272.81078 0,-51.53906 22.85156,0 c 4.59372,5e-5 8.0859,0.46294 10.47657,1.38867 2.39058,0.92583 4.30073,2.56059 5.73046,4.9043 1.42965,2.34379 2.14449,4.93363 2.14454,7.76953 -5e-5,3.65628 -1.18364,6.73831 -3.55079,9.24609 -2.36722,2.50784 -6.02347,4.10159 -10.96875,4.78125 1.80466,0.86721 3.17575,1.72268 4.11329,2.56641 1.99214,1.82814 3.87886,4.1133 5.66015,6.85547 l 8.96485,14.02734 -8.57813,0 -6.82031,-10.72266 c -1.99222,-3.09373 -3.63285,-5.46092 -4.92188,-7.10156 -1.28909,-1.6406 -2.44338,-2.78904 -3.46289,-3.44531 -1.01955,-0.65623 -2.05666,-1.11326 -3.11133,-1.3711 -0.77346,-0.16404 -2.03908,-0.24607 -3.79687,-0.24609 l -7.91016,0 0,22.88672 z m 6.82031,-28.79297 14.66016,0 c 3.11716,3e-5 5.55465,-0.32224 7.3125,-0.9668 1.75778,-0.6445 3.09371,-1.67575 4.00781,-3.09375 0.91403,-1.41793 1.37106,-2.95894 1.3711,-4.62304 -4e-5,-2.43746 -0.88481,-4.44137 -2.6543,-6.01172 -1.76957,-1.57027 -4.56449,-2.35542 -8.38477,-2.35547 l -16.3125,0 z" />
      <path
         inkscape:connector-curvature="0"
         id="path6132"
         style="letter-spacing:-0.55999732000000002px;fill:#ffffff"
         d="m 416.59174,272.81078 0,-21.83203 -19.86329,-29.70703 8.29688,0 10.16016,15.53906 c 1.87498,2.90628 3.62107,5.81253 5.23828,8.71875 1.54685,-2.69528 3.42184,-5.73044 5.625,-9.10547 l 9.98437,-15.15234 7.94531,0 -20.5664,29.70703 0,21.83203 z" />
    </g>
    <g
       transform="matrix(0.49243159,0,0,0.49243159,-163.3523,611.74818)"
       id="g6580"
       style="fill:#ffffff;display:inline">
      <path
         style="opacity:0.86725618999999998;fill:#ffffff;fill-opacity:1;fill-rule:nonzero;stroke:none;display:inline"
         d="m 423.04445,709.01858 c -17.85322,0 -32.3183,14.465 -32.3183,32.3183 0,17.8532 14.46508,32.3426 32.3183,32.3426 17.85319,0 32.31829,-14.4894 32.31829,-32.3426 0,-17.8533 -14.4651,-32.3183 -32.31829,-32.3183 z m 3.80503,7.4637 c 13.85576,0 1.94956,17.1699 4.00016,23.513 2.5372,7.8488 11.9866,21.8272 2.3171,24.0985 -13.48859,3.1684 -27.65954,-8.4622 -27.65954,-22.3179 0,-13.8558 7.48652,-25.2936 21.34228,-25.2936 z"
         id="path5759"
         inkscape:connector-curvature="0" />
      <g
         transform="translate(161.97556,162.40164)"
         style="fill:#ffffff;display:inline"
         id="g6542">
        <path
           sodipodi:nodetypes="csc"
           inkscape:connector-curvature="0"
           id="path6457-1"
           d="m 273.51334,563.04254 c -9.74057,-70.15458 -44.65963,-22.35296 -52.3981,-28.31111 -8.53295,-6.56987 25.43033,-19.7807 39.96054,-6.35586"
           style="fill:#ffffff;stroke:#008000;stroke-width:2.25853539000000000px;stroke-linecap:butt;stroke-linejoin:miter;stroke-opacity:0.86666666999999997" />
        <path
           style="fill:#ffffff;stroke:#008000;stroke-width:2.25853539000000000px;stroke-linecap:butt;stroke-linejoin:miter;stroke-opacity:0.86666666999999997"
           d="m 273.87048,560.54254 c -5.13955,-15.45367 -5.84958,-22.85308 -9.58562,-28.35347 -3.73604,-5.50039 -8.53382,-5.53034 -3.63459,-6.95937 9.4852,-2.7667 17.98022,-7.75288 20.97234,-11.0693 8.87038,-9.83179 -19.99103,-12.43851 -23.31796,11.70061"
           id="path6461-7"
           inkscape:connector-curvature="0"
           sodipodi:nodetypes="csssc" />
      </g>
    </g>
    <path
       style="fill:none;fill-opacity:0.86666666999999986;stroke:none;stroke-width:1.02035713000000010;stroke-miterlimit:4;stroke-opacity:1;stroke-dasharray:none"
       d="m 46.138421,987.8744 c -3.46396,-0.5239 -6.983714,-3.26436 -8.611238,-6.70466 -0.862999,-1.82423 -0.927349,-2.26622 -0.76054,-5.22371 0.265153,-4.70108 1.899603,-7.86867 5.071786,-9.82918 1.365186,-0.84374 4.901891,-1.58786 6.108035,-1.28514 2.140079,0.53713 2.376353,2.00428 1.182706,7.34408 l -0.759251,3.39652 1.652108,4.09164 c 1.757889,4.35362 2.0997,6.69943 1.097388,7.53127 -0.736027,0.61085 -3.20598,0.94764 -4.980994,0.67918 z"
       id="path6178"
       inkscape:connector-curvature="0" />
    <path
       style="fill:#ffffff;fill-opacity:0.86666667;stroke:#ffffff;stroke-width:0.25508928;stroke-miterlimit:4;stroke-opacity:1;stroke-dasharray:none"
       d="m 42.757507,52.657509 c -5.255665,-0.80354 -9.650944,-3.984707 -12.006737,-8.690104 -1.649381,-3.294429 -2.069197,-7.471762 -1.11006,-11.045507 1.378904,-5.137797 5.138352,-9.204714 10.125725,-10.953865 2.299408,-0.806438 5.102729,-1.06707 7.54248,-0.701242 l 0.97998,0.146943 0.738734,2.053571 c 0.406304,1.129464 0.763429,2.129812 0.793611,2.222996 0.03587,0.110746 -0.05738,0.05717 -0.269236,-0.154689 -0.408713,-0.408714 -0.704252,-0.561177 -1.410606,-0.727705 -1.122369,-0.264608 -3.151982,-0.106143 -4.582032,0.357748 -3.049353,0.989175 -5.32462,3.378262 -6.4606,6.783793 -0.731328,2.192428 -0.98757,5.070118 -0.629031,7.064239 0.783897,4.359885 4.575388,8.210912 9.055629,9.197825 1.01011,0.222508 2.799001,0.261358 3.842784,0.08345 1.018604,-0.173612 1.477424,-0.35274 1.936937,-0.756197 0.443392,-0.389304 0.692566,-0.945401 0.754471,-1.683803 0.108177,-1.290338 -0.286601,-2.662927 -1.752446,-6.093018 -1.604885,-3.755449 -1.479258,-3.362776 -1.471099,-4.598214 0.0066,-1.002405 0.03984,-1.197771 0.51561,-3.032568 0.601593,-2.320017 0.857623,-3.532295 0.871048,-4.124315 0.0083,-0.36488 0.03088,-0.302037 0.144757,0.402425 l 0.134952,0.834827 0.502565,-0.0625 c 0.276409,-0.03438 0.536313,-0.08318 0.577562,-0.108455 0.04125,-0.02528 0.04722,-0.3226 0.01326,-0.660721 -0.05322,-0.52995 -0.04201,-0.614765 0.08125,-0.614765 0.202713,0 0.185577,-0.104816 -0.209303,-1.280205 -0.193761,-0.576745 -0.437979,-1.478881 -0.542708,-2.004747 -0.104729,-0.525865 -0.26967,-1.272156 -0.366535,-1.658424 -0.09686,-0.386267 -0.160252,-0.718169 -0.140861,-0.73756 0.09806,-0.09806 1.721278,0.65236 2.786326,1.288119 2.920482,1.743323 5.47312,4.842227 6.633878,8.053531 0.702826,1.944408 0.95592,3.437413 0.945981,5.580358 -0.01176,2.535807 -0.539766,4.818833 -1.602565,6.92927 -2.378376,4.722823 -6.819186,7.930739 -12.029104,8.689481 -1.170332,0.170441 -3.279906,0.170452 -4.394619,2.4e-5 l 0,0 z"
       id="path6211"
       inkscape:connector-curvature="0"
       transform="translate(0,939.86218)" />
  </g>
</svg>
